<?xml version="1.0" encoding="UTF-8" standalone="no"?>
<svg width="39px" height="44px" viewBox="0 0 39 44" version="1.1" xmlns="http://www.w3.org/2000/svg" xmlns:xlink="http://www.w3.org/1999/xlink" xmlns:sketch="http://www.bohemiancoding.com/sketch/ns">
    <!-- Generator: Sketch 3.3.3 (12081) - http://www.bohemiancoding.com/sketch -->
    <title>Fill 6 Copy 5</title>
    <desc>Created with Sketch.</desc>
    <defs></defs>
    <g id="UI-toolkit" stroke="none" stroke-width="1" fill="none" fill-rule="evenodd" sketch:type="MSPage">
        <g id="LOGO" sketch:type="MSArtboardGroup" transform="translate(-750.000000, -479.000000)" fill="#FFFFFF">
            <path d="M756.788585,503.145062 C756.603204,503.339675 756.834432,503.556132 757.07164,503.410173 C760.398533,501.368723 767.219759,496.602693 772.403453,490.049401 C780.663875,479.606831 767.525738,474.723636 765.684884,483.674836 C764.086221,491.451409 760.713481,499.011524 756.788585,503.145062 Z M766.658633,500.483036 C788.945227,482.217225 796.622595,509.046996 780.150589,509.049975 C762.904167,509.053947 757.033766,514.727508 750.726823,522.292588 C750.452738,522.621246 749.837791,522.295567 750.040115,521.923221 C752.122164,518.091531 756.404866,508.887136 766.658633,500.483036 Z M775.180183,513.048476 C774.923041,512.961099 774.906098,512.511304 775.172209,512.464637 C777.395786,512.075411 782.822668,512.349458 786.748561,515.278581 C791.13691,518.553241 788.468817,524.173185 784.220999,522.783092 C779.967201,521.391014 782.629313,515.580429 775.180183,513.048476 Z" id="Fill-6-Copy-5" sketch:type="MSShapeGroup"></path>
        </g>
    </g>
</svg>