<?xml version="1.0" encoding="UTF-8" standalone="no"?>
<svg width="301px" height="45px" viewBox="0 0 301 45" version="1.1" xmlns="http://www.w3.org/2000/svg" xmlns:xlink="http://www.w3.org/1999/xlink" xmlns:sketch="http://www.bohemiancoding.com/sketch/ns">
    <!-- Generator: Sketch 3.3.3 (12081) - http://www.bohemiancoding.com/sketch -->
    <title>White splash</title>
    <desc>Created with Sketch.</desc>
    <defs></defs>
    <g id="UI-toolkit" stroke="none" stroke-width="1" fill="none" fill-rule="evenodd" sketch:type="MSPage">
        <g id="LOGO" sketch:type="MSArtboardGroup" transform="translate(-219.000000, -633.000000)" fill="#FFFFFF">
            <g id="White-splash" sketch:type="MSLayerGroup" transform="translate(219.000000, 633.000000)">
                <path d="M26.0368632,27.2048863 C25.4022457,25.990542 24.5521898,24.9525993 23.5110662,24.1212705 C22.48554,23.3026115 21.3089143,22.614548 20.0143337,22.0736483 C18.7470484,21.5463929 17.4280969,21.0561721 16.0915984,20.6185793 C14.7648482,20.1848849 13.473192,19.7443684 12.2156551,19.2999535 C10.9941871,18.8672337 9.89262375,18.3292578 8.94021013,17.7016192 C8.00924288,17.0885995 7.24984655,16.3362128 6.68346752,15.4649257 C6.13366069,14.6180034 5.85388309,13.5167121 5.85388309,12.1922387 C5.85388309,11.1708641 6.04787522,10.1826256 6.4280608,9.25578665 C6.80922122,8.33187144 7.37365058,7.50639024 8.10575153,6.80468248 C8.83882731,6.10200013 9.76687006,5.53673555 10.8645341,5.12545684 C11.9670722,4.71222894 13.2694516,4.50269121 14.7356031,4.50269121 C16.2027295,4.50269121 17.4475936,4.68201652 18.4341264,5.03871797 C19.440156,5.40126697 20.2853378,5.80085055 20.9472506,6.2238244 C21.6169621,6.6536204 22.1531213,7.04735641 22.5411055,7.3962611 C23.7265047,8.46149246 24.6106799,8.1739872 25.0698271,7.30562385 L25.9510777,5.61860146 L25.6976207,5.36618158 C24.2285446,3.89844286 22.5761996,2.79130396 20.785428,2.07692648 C18.997581,1.36157441 16.9572517,1 14.7229303,1 C12.7245189,1 10.9162003,1.31674308 9.34476658,1.9414579 C7.77235802,2.56909651 6.43196014,3.41406959 5.35964184,4.45298691 C4.2834242,5.4958026 3.4548146,6.71599442 2.89428458,8.08237535 C2.33667906,9.44388331 2.05397697,10.8775112 2.05397697,12.340377 C2.05397697,14.2125723 2.37664729,15.8021352 3.01418926,17.0652092 C3.6478319,18.3204864 4.49788786,19.3837686 5.54096111,20.2277671 C6.56648735,21.0571467 7.74506264,21.7461847 9.04354262,22.2763639 C10.3030292,22.7919242 11.6229556,23.2675261 12.9682276,23.6885507 C14.294003,24.1027532 15.5846843,24.5286509 16.8422212,24.9623452 C18.0558905,25.3823953 19.1574539,25.9106253 20.1147417,26.5294925 C21.0447341,27.1347155 21.8021807,27.8948989 22.3666101,28.7905509 C22.9183666,29.6686602 23.199119,30.816732 23.199119,32.2026048 C23.199119,33.5027134 22.9710077,34.7365495 22.5196592,35.8729262 C22.0712352,37.0015062 21.4132216,37.98877 20.5651154,38.8093783 C19.7101852,39.6338849 18.6485901,40.2936851 17.4066505,40.7722108 C16.1598368,41.2536603 14.7151316,41.4973088 13.1144528,41.4973088 C11.9485504,41.4973088 10.8967036,41.3823067 9.98620789,41.1542517 C9.06693866,40.9261966 8.24612774,40.6425898 7.54424667,40.3102532 C6.84431527,39.9798658 6.21944615,39.6153676 5.68913601,39.2284537 C5.14517818,38.8308193 4.67433296,38.459499 4.29219771,38.123264 C3.89349027,37.7763085 3.55424775,37.4829557 3.27641983,37.2451547 C2.89915875,36.9206149 2.58038777,36.7695528 2.27428963,36.7695528 C1.94966964,36.7695528 1.47589992,36.8796819 1.02942557,37.4420227 L0,39.0598489 L0.24273387,39.3346845 C1.78589739,41.0801825 3.60786367,42.4748267 5.65794129,43.477684 C7.71776727,44.4873635 10.2006716,45 13.0403654,45 C15.2327689,45 17.2146081,44.6530445 18.9312922,43.969854 C20.6489511,43.2837398 22.1258259,42.3315613 23.3180489,41.1406073 C24.5112467,39.9467296 25.4334404,38.5247968 26.0602592,36.9137927 C26.6841535,35.3096108 27,33.5738587 27,31.7562407 C27,29.9610384 26.67538,28.429951 26.0368632,27.2048863" id="Fill-1-Copy-7" sketch:type="MSShapeGroup"></path>
                <path d="M240.536863,27.2048863 C239.902246,25.990542 239.05219,24.9525993 238.011066,24.1212705 C236.98554,23.3026115 235.808914,22.614548 234.514334,22.0736483 C233.247048,21.5463929 231.928097,21.0561721 230.591598,20.6185793 C229.264848,20.1848849 227.973192,19.7443684 226.715655,19.2999535 C225.494187,18.8672337 224.392624,18.3292578 223.44021,17.7016192 C222.509243,17.0885995 221.749847,16.3362128 221.183468,15.4649257 C220.633661,14.6180034 220.353883,13.5167121 220.353883,12.1922387 C220.353883,11.1708641 220.547875,10.1826256 220.928061,9.25578665 C221.309221,8.33187144 221.873651,7.50639024 222.605752,6.80468248 C223.338827,6.10200013 224.26687,5.53673555 225.364534,5.12545684 C226.467072,4.71222894 227.769452,4.50269121 229.235603,4.50269121 C230.70273,4.50269121 231.947594,4.68201652 232.934126,5.03871797 C233.940156,5.40126697 234.785338,5.80085055 235.447251,6.2238244 C236.116962,6.6536204 236.653121,7.04735641 237.041106,7.3962611 C238.226505,8.46149246 239.11068,8.1739872 239.569827,7.30562385 L240.451078,5.61860146 L240.197621,5.36618158 C238.728545,3.89844286 237.0762,2.79130396 235.285428,2.07692648 C233.497581,1.36157441 231.457252,1 229.22293,1 C227.224519,1 225.4162,1.31674308 223.844767,1.9414579 C222.272358,2.56909651 220.93196,3.41406959 219.859642,4.45298691 C218.783424,5.4958026 217.954815,6.71599442 217.394285,8.08237535 C216.836679,9.44388331 216.553977,10.8775112 216.553977,12.340377 C216.553977,14.2125723 216.876647,15.8021352 217.514189,17.0652092 C218.147832,18.3204864 218.997888,19.3837686 220.040961,20.2277671 C221.066487,21.0571467 222.245063,21.7461847 223.543543,22.2763639 C224.803029,22.7919242 226.122956,23.2675261 227.468228,23.6885507 C228.794003,24.1027532 230.084684,24.5286509 231.342221,24.9623452 C232.555891,25.3823953 233.657454,25.9106253 234.614742,26.5294925 C235.544734,27.1347155 236.302181,27.8948989 236.86661,28.7905509 C237.418367,29.6686602 237.699119,30.816732 237.699119,32.2026048 C237.699119,33.5027134 237.471008,34.7365495 237.019659,35.8729262 C236.571235,37.0015062 235.913222,37.98877 235.065115,38.8093783 C234.210185,39.6338849 233.14859,40.2936851 231.906651,40.7722108 C230.659837,41.2536603 229.215132,41.4973088 227.614453,41.4973088 C226.44855,41.4973088 225.396704,41.3823067 224.486208,41.1542517 C223.566939,40.9261966 222.746128,40.6425898 222.044247,40.3102532 C221.344315,39.9798658 220.719446,39.6153676 220.189136,39.2284537 C219.645178,38.8308193 219.174333,38.459499 218.792198,38.123264 C218.39349,37.7763085 218.054248,37.4829557 217.77642,37.2451547 C217.399159,36.9206149 217.080388,36.7695528 216.77429,36.7695528 C216.44967,36.7695528 215.9759,36.8796819 215.529426,37.4420227 L214.5,39.0598489 L214.742734,39.3346845 C216.285897,41.0801825 218.107864,42.4748267 220.157941,43.477684 C222.217767,44.4873635 224.700672,45 227.540365,45 C229.732769,45 231.714608,44.6530445 233.431292,43.969854 C235.148951,43.2837398 236.625826,42.3315613 237.818049,41.1406073 C239.011247,39.9467296 239.93344,38.5247968 240.560259,36.9137927 C241.184154,35.3096108 241.5,33.5738587 241.5,31.7562407 C241.5,29.9610384 241.17538,28.429951 240.536863,27.2048863" id="Fill-1-Copy-8" sketch:type="MSShapeGroup"></path>
                <path d="M66.2526845,1.52599118 L55.503041,1.52599118 L55.503041,44.5 L59.5,44.5 L59.5,28.5 L66.2526845,28.5 C68.5524385,28.4486369 70.6499432,28.0297025 72.4872776,27.399519 C74.3322082,26.7674142 75.9255142,25.8692105 77.2235174,24.7279635 C78.5262681,23.5828739 79.5375142,22.1995441 80.2278202,20.6183214 C80.9190757,19.0399806 81.2685016,16.1931289 81.2685016,14.3160273 C81.2685016,10.2419291 79.9809432,7.05258557 77.4390599,4.83829736 C74.9190158,2.64130078 71.1550915,1.52599118 66.2526845,1.52599118 Z M76.608224,18.7566257 C76.1078233,19.9084399 75.3766877,20.9228817 74.4385552,21.7701711 C73.4947256,22.6232245 72.3249085,23.3014403 70.961388,23.7865663 C69.5902713,24.2745743 68.005511,24.5214602 66.2526845,24.5214602 L59.5,24.5214602 L59.5,5.5 L66.2526845,5.5 C69.9596372,5.52434846 72.7730852,6.35146436 74.6151672,7.98456196 C76.4392082,9.60036793 77.4649968,12.0539498 77.4649968,15.0790229 C77.4649968,16.4498642 77.1105237,17.600969 76.608224,18.7566257 Z" id="Fill-2-Copy-2" sketch:type="MSShapeGroup"></path>
                <path d="M113.5,40.5 L113.5,1.5 L109.5,1.5 L109.5,44.5 L113,44.5 L133.5,44.5 L133.5,40.5 L113.5,40.5 L113.5,40.5 Z" id="Rectangle-491-Copy-2" sketch:type="MSShapeGroup"></path>
                <path d="M271.5,20.5 L271.5,1.5 L267.5,1.5 L267.5,44.5 L271.5,44.5 L271.5,24.5 L296.5,24.5 L296.5,44.5 L300.5,44.5 L300.5,1.5 L296.5,1.5 L296.5,20.5 L271.5,20.5 L271.5,20.5 Z" id="Rectangle-491-Copy-3" sketch:type="MSShapeGroup"></path>
                <path d="M157.288585,24.6450623 C157.103204,24.8396752 157.334432,25.0561324 157.57164,24.9101727 C160.898533,22.8687231 167.719759,18.102693 172.903453,11.5494015 C181.163875,1.10683083 168.025738,-3.77636424 166.184884,5.17483616 C164.586221,12.9514087 161.213481,20.511524 157.288585,24.6450623 Z M167.158633,21.9830359 C189.445227,3.71722527 197.122595,30.5469963 180.650589,30.5499751 C163.404167,30.5539468 157.533766,36.2275085 151.226823,43.7925884 C150.952738,44.1212459 150.337791,43.7955672 150.540115,43.4232211 C152.622164,39.5915314 156.904866,30.3871357 167.158633,21.9830359 Z M175.680183,34.5484758 C175.423041,34.4610986 175.406098,34.0113045 175.672209,33.9646371 C177.895786,33.5754113 183.322668,33.849458 187.248561,36.7785807 C191.63691,40.0532406 188.968817,45.6731845 184.720999,44.2830924 C180.467201,42.8910144 183.129313,37.0804293 175.680183,34.5484758 Z" id="Fill-6-Copy-7" sketch:type="MSShapeGroup"></path>
            </g>
        </g>
    </g>
</svg>