<?xml version="1.0" encoding="UTF-8" standalone="no"?>
<svg width="170px" height="158px" viewBox="0 0 170 158" version="1.1" xmlns="http://www.w3.org/2000/svg" xmlns:xlink="http://www.w3.org/1999/xlink" xmlns:sketch="http://www.bohemiancoding.com/sketch/ns">
    <!-- Generator: Sketch 3.3.2 (12043) - http://www.bohemiancoding.com/sketch -->
    <title>Artboard 12</title>
    <desc>Created with Sketch.</desc>
    <defs></defs>
    <g id="Page-1" stroke="none" stroke-width="1" fill="none" fill-rule="evenodd" sketch:type="MSPage">
        <g id="Overlay" sketch:type="MSArtboardGroup" transform="translate(-1371.000000, -545.000000)"></g>
        <g id="Artboard-12" sketch:type="MSArtboardGroup">
            <ellipse id="Oval-99-Copy" fill="#9A53BA" sketch:type="MSShapeGroup" cx="84.4121557" cy="82.4028571" rx="46.4121557" ry="46.4028571"></ellipse>
            <path d="M80.2967025,71.798961 C77.6755533,71.798961 75.5843169,69.6968132 75.5843169,67.1036824 L75.5843169,57.6952787 C75.5843169,55.0836448 77.6941238,53 80.2967025,53 L89.7393849,53 C92.3605341,53 94.4517705,55.1021479 94.4517705,57.6952787 L94.4517705,67.1036824 C94.4517705,69.7153163 92.3419636,71.798961 89.7393849,71.798961 L87.3764754,71.798961 L87.3764754,76.4987013 L90.9141229,76.4987013 L108.612791,76.4987013 C109.911675,76.4987013 110.960792,77.550774 110.960792,78.8485714 L110.960792,80.0235065 L110.960792,85.8981818 L113.323702,85.8981818 C115.944851,85.8981818 118.036087,88.0003297 118.036087,90.5934605 L118.036087,100.001864 C118.036087,102.613498 115.92628,104.697143 113.323702,104.697143 L103.881019,104.697143 C101.25987,104.697143 99.1686338,102.594995 99.1686338,100.001864 L99.1686338,90.5934605 C99.1686338,87.9818266 101.278441,85.8981818 103.881019,85.8981818 L106.243929,85.8981818 L106.243929,81.1984416 L90.9141229,81.1984416 L87.3764754,81.1984416 L87.3764754,85.8981818 L89.7393849,85.8981818 C92.3605341,85.8981818 94.4517705,88.0003297 94.4517705,90.5934605 L94.4517705,100.001864 C94.4517705,102.613498 92.3419636,104.697143 89.7393849,104.697143 L80.2967025,104.697143 C77.6755533,104.697143 75.5843169,102.594995 75.5843169,100.001864 L75.5843169,90.5934605 C75.5843169,87.9818266 77.6941238,85.8981818 80.2967025,85.8981818 L82.659612,85.8981818 L82.659612,81.1984416 L63.7921585,81.1984416 L63.7921585,85.8981818 L66.155068,85.8981818 C68.7762172,85.8981818 70.8674535,88.0003297 70.8674535,90.5934605 L70.8674535,100.001864 C70.8674535,102.613498 68.7576467,104.697143 66.155068,104.697143 L56.7123856,104.697143 C54.0912364,104.697143 52,102.594995 52,100.001864 L52,90.5934605 C52,87.9818266 54.1098069,85.8981818 56.7123856,85.8981818 L59.0752951,85.8981818 L59.0752951,80.0235065 L59.0752951,78.8485714 C59.0752951,77.550774 60.1239266,76.4987013 61.4357825,76.4987013 L82.659612,76.4987013 L82.659612,71.798961 L80.2967025,71.798961 Z" id="prototype-copy" fill="#FCFDFD" sketch:type="MSShapeGroup"></path>
        </g>
    </g>
</svg>