<?xml version="1.0" encoding="UTF-8" standalone="no"?>
<svg width="170px" height="180px" viewBox="0 0 170 180" version="1.1" xmlns="http://www.w3.org/2000/svg" xmlns:xlink="http://www.w3.org/1999/xlink" xmlns:sketch="http://www.bohemiancoding.com/sketch/ns">
    <!-- Generator: Sketch 3.3.2 (12043) - http://www.bohemiancoding.com/sketch -->
    <title>Artboard 14</title>
    <desc>Created with Sketch.</desc>
    <defs></defs>
    <g id="Page-1" stroke="none" stroke-width="1" fill="none" fill-rule="evenodd" sketch:type="MSPage">
        <g id="Overlay" sketch:type="MSArtboardGroup" transform="translate(-1371.000000, -910.000000)"></g>
        <g id="Artboard-14" sketch:type="MSArtboardGroup">
            <ellipse id="Oval-99-Copy-3" fill="#E9C900" sketch:type="MSShapeGroup" cx="85.4121557" cy="90.4028571" rx="46.4121557" ry="46.4028571"></ellipse>
            <path d="M71.1178617,93.5790429 L67.8014182,93.5790429 C66.4484345,93.5790429 65.3099653,93.2473507 64.3859764,92.5839565 C63.4619875,91.9205623 63,91.3169682 63,90.03932 C63,84.2571432 64.0229723,80.9991857 66.0689477,80.9991857 C66.1679465,80.9991857 66.5268118,81.1711742 67.1455544,81.5151564 C67.7642969,81.8591386 68.5686502,82.2072106 69.5586383,82.5593828 C70.5486264,82.9115551 71.5303498,83.0876386 72.5038381,83.0876386 C73.6093248,83.0876386 74.7065451,82.8992702 75.795532,82.5225278 C75.713033,83.1285916 75.6717841,83.669127 75.6717841,84.14415 C75.6717841,86.4209845 76.3400161,88.8845189 77.6765,90.8009911 C75.0035322,90.8828916 72.8173413,91.56429 71.1178617,93.5790429 Z M102.580763,93.5790429 L105.897207,93.5790429 C107.250191,93.5790429 108.38866,93.2473507 109.312649,92.5839565 C110.236637,91.9205623 110.698625,91.3169682 110.698625,90.03932 C110.698625,84.2571432 109.675653,80.9991857 107.629677,80.9991857 C107.530678,80.9991857 107.171813,81.1711742 106.553071,81.5151564 C105.934328,81.8591386 105.129975,82.2072106 104.139987,82.5593828 C103.149999,82.9115551 102.168275,83.0876386 101.194787,83.0876386 C100.0893,83.0876386 98.9920799,82.8992702 97.903093,82.5225278 C97.985592,83.1285916 98.0268409,83.669127 98.0268409,84.14415 C98.0268409,86.4209845 97.3586089,88.8845189 96.022125,90.8009911 C98.6950928,90.8828916 100.881284,91.56429 102.580763,93.5790429 Z M102.353004,112.26447 C101.157256,113.33087 99.5684097,113.864063 97.5864171,113.864063 L76.1122079,113.864063 C74.1302153,113.864063 72.541369,113.33087 71.3456214,112.26447 C70.1498738,111.198069 69.5520089,108.713152 69.5520089,106.871885 C69.5520089,106.058659 69.5806737,105.264624 69.638004,104.489758 C69.6953344,103.714891 69.8099934,102.878662 69.9819845,101.981044 C70.1539756,101.083426 70.3710087,100.251032 70.6330904,99.4838376 C70.8951721,98.716643 71.247339,97.9686394 71.6896018,97.2398045 C72.1318647,96.5109695 72.6396403,95.8895512 73.2129439,95.3755308 C73.7862476,94.8615103 74.4864865,94.4510674 75.3136818,94.1441895 C76.140877,93.8373116 77.0540542,93.683875 78.0532405,93.683875 C78.2170416,93.683875 78.5692085,93.8488194 79.109752,94.1787131 C79.6502954,94.5086068 80.2481602,94.8768547 80.9033644,95.2834679 C81.5585686,95.690081 82.434891,96.058329 83.532358,96.3882227 C84.629825,96.7181164 85.7354654,96.8830607 86.8493125,96.8830607 C87.9631596,96.8830607 89.0688,96.7181164 90.166267,96.3882227 C91.263734,96.058329 92.1400564,95.690081 92.7952606,95.2834679 C93.4504648,94.8768547 94.0483296,94.5086068 94.588873,94.1787131 C95.1294165,93.8488194 95.4815834,93.683875 95.6453845,93.683875 C96.6445708,93.683875 97.557748,93.8373116 98.3849432,94.1441895 C99.2121385,94.4510674 99.9123774,94.8615103 100.485681,95.3755308 C101.058985,95.8895512 101.56676,96.5109695 102.009023,97.2398045 C102.451286,97.9686394 102.803453,98.716643 103.065535,99.4838376 C103.327616,100.251032 103.544649,101.083426 103.71664,101.981044 C103.888632,102.878662 104.003291,103.714891 104.060621,104.489758 C104.117951,105.264624 104.146616,106.058659 104.146616,106.871885 C104.146616,108.713152 103.548751,111.198069 102.353004,112.26447 Z M86.8493125,93.683875 C91.915317,93.683875 96.022125,89.577067 96.022125,84.5110625 C96.022125,79.445058 91.915317,75.33825 86.8493125,75.33825 C81.783308,75.33825 77.6765,79.445058 77.6765,84.5110625 C77.6765,89.577067 81.783308,93.683875 86.8493125,93.683875 Z M73.0900938,80.8419375 C76.6362969,80.8419375 79.5110625,77.9671719 79.5110625,74.4209688 C79.5110625,70.8747656 76.6362969,68 73.0900938,68 C69.5438906,68 66.669125,70.8747656 66.669125,74.4209688 C66.669125,77.9671719 69.5438906,80.8419375 73.0900938,80.8419375 Z M100.608531,80.8419375 C104.154734,80.8419375 107.0295,77.9671719 107.0295,74.4209688 C107.0295,70.8747656 104.154734,68 100.608531,68 C97.0623281,68 94.1875625,70.8747656 94.1875625,74.4209688 C94.1875625,77.9671719 97.0623281,80.8419375 100.608531,80.8419375 Z" id="people" fill="#FDFDFD" sketch:type="MSShapeGroup"></path>
        </g>
    </g>
</svg>