<svg xmlns="http://www.w3.org/2000/svg" width="17" height="17" viewBox="0 0 24 24"><title>ico_theme_control_24</title><path d="M23.82.128a.5.5,0,0,0-.582-.035,33.084,33.084,0,0,0-6.82,5.7,33.606,33.606,0,0,0-3.838,5.112.479.479,0,0,0-.04.111,2.591,2.591,0,0,0-1.481.244A3.4,3.4,0,0,0,9.4,13.388a3.308,3.308,0,0,0-.015,1.524c.057.318.071.439,0,.55-.088.142-.449.455-1.885.348a.482.482,0,0,0-.5.295.5.5,0,0,0,.113.566A4.932,4.932,0,0,0,10.4,18.007a4.528,4.528,0,0,0,.494-.027,4.74,4.74,0,0,0,3.777-2.863,3.306,3.306,0,0,0,.181-2.292,2.75,2.75,0,0,0-.113-.269A25.823,25.823,0,0,0,17.967,9.89a25.526,25.526,0,0,0,4.7-6.272A24.764,24.764,0,0,0,23.974.69.5.5,0,0,0,23.82.128Zm-10.074,14.6a1.98,1.98,0,0,1-1.317.879,1.869,1.869,0,0,1-1.992-1,1.559,1.559,0,0,1-.087-.874c.007-.031.008-.059.016-.091A2.417,2.417,0,0,1,11.5,12.16a1.791,1.791,0,0,1,1.6.062,1.631,1.631,0,0,1,.8.919A2.323,2.323,0,0,1,13.746,14.724ZM21.782,3.152a24.517,24.517,0,0,1-4.514,6.023,24.851,24.851,0,0,1-3.127,2.576,2.823,2.823,0,0,0-.554-.4l-.076-.039a32.592,32.592,0,0,1,3.646-4.841,32.1,32.1,0,0,1,5.268-4.633Q22.123,2.5,21.782,3.152Z" fill="#666"/><path d="M3.288,6.011H14.475a.5.5,0,0,0,0-1H3.288A1.339,1.339,0,0,0,1.995,6.522v2a1.312,1.312,0,0,0,1.293,1.487h8.2a.5.5,0,0,0,0-1h-8.2c-.088,0-.293,0-.293-.487v-2C2.995,6.183,3.093,6.011,3.288,6.011Z" fill="#666"/><circle cx="3.019" cy="13.017" r="1" fill="#666"/><circle cx="6.019" cy="13.017" r="1" fill="#666"/><path d="M20.5,9a.5.5,0,0,0-.5.5v13a.5.5,0,0,1-.5.5H1.5a.5.5,0,0,1-.5-.5V4.5A.5.5,0,0,1,1.5,4H16.513a.5.5,0,0,0,0-1H1.5A1.5,1.5,0,0,0,0,4.5v18A1.5,1.5,0,0,0,1.5,24h18A1.5,1.5,0,0,0,21,22.5V9.5A.5.5,0,0,0,20.5,9Z" fill="#666"/></svg>