<?xml version="1.0" encoding="UTF-8" standalone="no"?>
<svg width="21px" height="18px" viewBox="0 0 21 18" version="1.1" xmlns="http://www.w3.org/2000/svg" xmlns:xlink="http://www.w3.org/1999/xlink" xmlns:sketch="http://www.bohemiancoding.com/sketch/ns">
    <!-- Generator: Sketch 3.3.3 (12072) - http://www.bohemiancoding.com/sketch -->
    <title>like</title>
    <desc>Created with Sketch.</desc>
    <defs></defs>
    <g id="UI-toolkit" stroke="none" stroke-width="1" fill="none" fill-rule="evenodd" sketch:type="MSPage">
        <g id="Icon-Set" sketch:type="MSArtboardGroup" transform="translate(-847.000000, -298.000000)" fill="#999999">
            <path d="M866.091339,299.444648 C864.847095,298.243159 862.682793,297.722289 860.707491,298.145285 C859.313623,298.444532 858.194066,299.171276 857.497132,300.199517 C856.800198,299.174651 855.680641,298.450157 854.284148,298.152035 C852.302283,297.727914 850.139293,298.247659 848.904237,299.445773 C845.83169,302.425872 846.88956,306.124839 849.173298,308.301694 L857.077134,315.835751 C857.081071,315.840251 857.086321,315.841376 857.090259,315.843626 C857.094196,315.848126 857.095509,315.852626 857.099446,315.856001 C857.133571,315.886376 857.176883,315.903251 857.216258,315.923501 C857.23857,315.934751 857.256945,315.951625 857.28057,315.960625 C857.350132,315.985375 857.423632,316 857.498444,316 C857.571944,316 857.645443,315.985375 857.716318,315.960625 C857.73863,315.951625 857.757005,315.934751 857.779318,315.923501 C857.820005,315.903251 857.862005,315.886376 857.897442,315.856001 C857.90138,315.852626 857.902692,315.848126 857.90663,315.843626 C857.910567,315.841376 857.914505,315.840251 857.918442,315.835751 L865.822278,308.301694 C868.111266,306.120339 869.170448,302.417997 866.091339,299.444648 L866.091339,299.444648 Z M857.678879,314.827121 C857.579238,314.9226 857.413089,314.918193 857.318046,314.827121 L849.89651,307.715656 C847.878033,305.781129 847.014114,302.688643 849.629868,300.138376 C850.589778,299.203279 852.370944,298.788573 853.962795,299.129757 C854.828047,299.315858 856.365236,299.889094 856.933183,301.639817 C856.938515,301.658198 856.953181,301.670834 856.96118,301.688066 C856.977178,301.723678 856.995843,301.754694 857.018508,301.785711 C857.038506,301.813282 857.059837,301.836257 857.085168,301.859232 C857.113166,301.885654 857.143829,301.907481 857.178493,301.928158 C857.207823,301.946539 857.238487,301.961473 857.271817,301.974109 C857.293149,301.982151 857.309147,301.995936 857.331812,302.002828 C857.423803,302.013167 857.461133,302.014316 857.499796,302.014316 C857.537126,302.014316 857.573122,302.013167 857.609119,302.006275 C857.687778,301.995936 857.703777,301.982151 857.725108,301.97296 C857.758438,301.960324 857.787769,301.946539 857.818433,301.928158 C857.851763,301.907481 857.882427,301.885654 857.910424,301.859232 C857.935755,301.836257 857.957086,301.812133 857.978418,301.785711 C858.001082,301.754694 858.018414,301.723678 858.034412,301.689214 C858.042412,301.671983 858.057077,301.658198 858.063743,301.639817 C858.63169,299.88335 860.166212,299.308965 861.030131,299.122865 C862.636647,298.774788 864.381816,299.182601 865.367057,300.139525 C867.988144,302.684048 867.121559,305.777683 865.100415,307.715656 L857.678879,314.827121 Z" id="like" sketch:type="MSShapeGroup"></path>
        </g>
    </g>
</svg>