<?xml version="1.0" encoding="utf-8"?>
<!-- Generator: Adobe Illustrator 16.0.0, SVG Export Plug-In . SVG Version: 6.00 Build 0)  -->
<!DOCTYPE svg PUBLIC "-//W3C//DTD SVG 1.1//EN" "http://www.w3.org/Graphics/SVG/1.1/DTD/svg11.dtd">
<svg version="1.1" xmlns="http://www.w3.org/2000/svg" xmlns:xlink="http://www.w3.org/1999/xlink" x="0px" y="0px"
	 width="39.689px" height="39.689px" viewBox="0 0 39.689 39.689" enable-background="new 0 0 39.689 39.689" xml:space="preserve">
<g id="Layer_2" display="none">
	<rect x="0" y="-0.001" display="inline" width="40" height="39.691"/>
</g>
<g id="Layer_1">
	<g id="Layer_1_1_">
		<g>
			<path fill="#EA1C60" d="M36.88,13.975c0-2.582-2.103-4.686-4.685-4.686c-0.899,0-1.758,0.254-2.51,0.732l-0.015-0.016
				l-0.332,0.258L29.295,10.3c-2.426-2.399-5.756-3.888-9.437-3.891l0,0c-0.004,0-0.006,0-0.01,0c-3.688,0-7.023,1.491-9.451,3.897
				l-0.044-0.035l-0.333-0.257l-0.015,0.014C9.253,9.545,8.391,9.289,7.487,9.289c-2.582,0-4.684,2.104-4.684,4.686
				c0,2.049,1.305,3.821,3.222,4.446l-0.002,0.021l0.411,0.095l0.058,0.013c-0.042,0.428-0.07,0.855-0.07,1.294
				c0,7.418,6.013,13.432,13.431,13.432s13.433-6.014,13.433-13.432c0-0.438-0.031-0.868-0.074-1.298l0.062-0.013
				c0.002,0,0.002-0.003,0.002-0.003l0.406-0.094l-0.002-0.021C35.581,17.786,36.88,16.016,36.88,13.975z M7.315,16.393
				c-0.148,0-0.294-0.017-0.437-0.041c-1.128-0.205-1.982-1.191-1.982-2.379c0-1.338,1.083-2.42,2.419-2.42
				c0.59,0,1.131,0.213,1.552,0.563c0.529,0.441,0.868,1.108,0.868,1.854C9.735,15.309,8.652,16.393,7.315,16.393z M19.877,30.426
				c-0.006,0-0.011,0-0.018,0c-5.456-0.008-9.875-3.63-9.875-8.099c0-1.833,0.744-3.526,2-4.884c-0.1-0.159-0.186-0.326-0.263-0.498
				c-0.009-0.016-0.017-0.032-0.022-0.051c-0.168-0.374-0.296-0.771-0.365-1.188c-0.045-0.265-0.069-0.535-0.069-0.812
				c0-0.639,0.126-1.246,0.351-1.806c0.087-0.216,0.188-0.424,0.305-0.623c0,0,0,0,0-0.001c0.031-0.052,0.063-0.104,0.098-0.153
				c0.026-0.042,0.053-0.087,0.082-0.13c0.033-0.05,0.067-0.097,0.104-0.146c0.029-0.042,0.062-0.084,0.092-0.125
				c0.037-0.047,0.075-0.093,0.113-0.138c0.033-0.041,0.067-0.08,0.103-0.118c0.04-0.045,0.079-0.087,0.119-0.129
				c0.037-0.037,0.075-0.075,0.115-0.113c0.041-0.039,0.082-0.079,0.124-0.117s0.083-0.073,0.127-0.108
				c0.042-0.036,0.083-0.071,0.126-0.104c0.049-0.038,0.1-0.074,0.147-0.11c0.04-0.028,0.079-0.06,0.12-0.088
				c0.088-0.06,0.18-0.119,0.272-0.174c0.031-0.02,0.064-0.036,0.097-0.054c0.066-0.037,0.134-0.074,0.2-0.107
				c0.042-0.021,0.083-0.039,0.125-0.059c0.062-0.027,0.123-0.058,0.185-0.082c0.045-0.02,0.09-0.035,0.136-0.054
				c0.062-0.021,0.124-0.045,0.188-0.065c0.047-0.017,0.094-0.03,0.14-0.044c0.064-0.02,0.13-0.038,0.194-0.055
				c0.048-0.012,0.095-0.022,0.142-0.032c0.068-0.017,0.139-0.029,0.208-0.041c0.045-0.009,0.091-0.018,0.137-0.022
				c0.076-0.013,0.154-0.021,0.233-0.027c0.039-0.004,0.078-0.01,0.117-0.012c0.117-0.009,0.236-0.015,0.357-0.015
				c1.508,0,2.853,0.69,3.742,1.771c0.021,0.024,0.046,0.049,0.064,0.074c0.89-1.123,2.266-1.847,3.811-1.847
				c0.115,0,0.229,0.006,0.343,0.013c0.037,0.004,0.075,0.008,0.112,0.012c0.074,0.009,0.149,0.015,0.224,0.023
				c0.045,0.008,0.088,0.016,0.133,0.021c0.066,0.012,0.132,0.021,0.197,0.035c0.045,0.013,0.092,0.021,0.139,0.033
				c0.062,0.016,0.121,0.03,0.181,0.048c0.049,0.014,0.097,0.026,0.144,0.042c0.058,0.019,0.11,0.037,0.168,0.059
				c0.047,0.019,0.097,0.033,0.144,0.054c0.053,0.021,0.104,0.043,0.155,0.065c0.05,0.021,0.099,0.041,0.146,0.062
				c0.05,0.022,0.095,0.049,0.142,0.071c0.05,0.026,0.101,0.051,0.147,0.078c0.022,0.014,0.045,0.026,0.065,0.041
				c0.128,0.073,0.25,0.153,0.369,0.237c0.024,0.02,0.054,0.036,0.076,0.056c0.058,0.042,0.11,0.086,0.164,0.13
				c0.026,0.021,0.057,0.044,0.084,0.064c0.051,0.045,0.104,0.094,0.153,0.142c0.024,0.021,0.054,0.046,0.076,0.069
				c0.051,0.048,0.1,0.099,0.147,0.149c0.022,0.022,0.045,0.049,0.067,0.072c0.049,0.054,0.097,0.106,0.144,0.162
				c0.021,0.022,0.037,0.047,0.058,0.069c0.047,0.061,0.094,0.118,0.139,0.181c0.015,0.019,0.027,0.038,0.041,0.059
				c0.048,0.066,0.095,0.135,0.138,0.203l0,0c0.112,0.178,0.217,0.358,0.306,0.551c0.291,0.623,0.459,1.314,0.459,2.048
				c0,0.366-0.043,0.724-0.119,1.064c-0.084,0.371-0.213,0.726-0.375,1.061c-0.009,0.015-0.015,0.027-0.021,0.041
				c-0.076,0.153-0.158,0.305-0.25,0.446c1.221,1.347,1.942,3.015,1.942,4.819C29.769,26.8,25.341,30.426,19.877,30.426z
				 M32.821,16.353c-0.139,0.023-0.28,0.04-0.428,0.04c-1.336,0-2.42-1.084-2.42-2.42c0-0.744,0.336-1.408,0.862-1.853
				c0.422-0.354,0.963-0.567,1.558-0.567c1.336,0,2.42,1.082,2.42,2.42C34.813,15.163,33.954,16.151,32.821,16.353z"/>
			<path fill="#EA1C60" d="M16.167,16.793c1.047-0.01,1.859-0.839,1.855-1.892c-0.007-1.055-0.823-1.864-1.88-1.86
				c-1.047,0.004-1.858,0.828-1.854,1.886C14.291,15.969,15.129,16.802,16.167,16.793z"/>
			<g>
				<path fill="#EA1C60" d="M18.655,19.751c-0.385,0.002-0.688,0.309-0.687,0.695c0.002,0.381,0.311,0.689,0.689,0.689h0.006
					c0.386-0.004,0.688-0.311,0.686-0.698C19.346,20.054,19.042,19.751,18.655,19.751z M18.658,20.981L18.658,20.981v0.002V20.981z"
					/>
				<path fill="#EA1C60" d="M21.038,19.751c-0.387,0.002-0.688,0.309-0.688,0.695c0.001,0.381,0.312,0.689,0.689,0.689h0.006
					c0.386-0.004,0.687-0.311,0.687-0.698C21.729,20.054,21.425,19.751,21.038,19.751z M21.042,20.981L21.042,20.981v0.002V20.981z"
					/>
			</g>
			<g>
				<path fill="#EA1C60" d="M24.993,22.64c-0.08,0.023-0.166,0.041-0.369,0.325c-0.658,0.925-1.69,1.591-3.414,2.225
					c-1.103,0.406-2.508,0.672-3.125,0.651c-0.617-0.021-0.725,0.149-0.725,0.354c0,0.224,0.405,0.365,0.602,0.441
					c0.196,0.073,1.712,0.422,2.678,0.422c3.062,0,5.084-1.199,5.172-2.775c0.028-0.556-0.106-1.188-0.515-1.562
					C25.257,22.685,25.128,22.597,24.993,22.64z"/>
			</g>
			<g>
				<path fill="#EA1C60" d="M26.017,14.497c-0.022-0.812-0.963-1.463-2.117-1.463c-1.151,0-2.088,0.646-2.116,1.452v0.043
					c0.014,0.089,0.088,0.154,0.18,0.154c0.052,0,0.097-0.021,0.129-0.054l0.007-0.006c0.373-0.425,1.041-0.709,1.803-0.709
					c0.763,0,1.429,0.285,1.802,0.709l0.006,0.006c0.033,0.033,0.078,0.054,0.129,0.054c0.091,0,0.166-0.066,0.181-0.154v-0.032
					H26.017z"/>
			</g>
		</g>
	</g>
</g>
</svg>
