<?xml version="1.0" encoding="UTF-8" standalone="no"?>
<svg width="138px" height="146px" viewBox="0 0 138 146" version="1.1" xmlns="http://www.w3.org/2000/svg" xmlns:xlink="http://www.w3.org/1999/xlink" xmlns:sketch="http://www.bohemiancoding.com/sketch/ns">
    <!-- Generator: Sketch 3.3.3 (12081) - http://www.bohemiancoding.com/sketch -->
    <title>Sad File Illustration</title>
    <desc>Created with Sketch.</desc>
    <defs></defs>
    <g id="UI-toolkit" stroke="none" stroke-width="1" fill="none" fill-rule="evenodd" sketch:type="MSPage">
        <g id="Illustration" sketch:type="MSArtboardGroup" transform="translate(-1687.000000, -1027.000000)">
            <g id="Sad-File-Illustration" sketch:type="MSLayerGroup" transform="translate(1680.000000, 1028.000000)">
                <path d="M128.679,139.723 C128.679,142.226 106.243,144.255 78.567,144.255 C50.891,144.255 28.455,142.226 28.455,139.723 C28.455,137.22 50.891,135.191 78.567,135.191 C106.243,135.191 128.679,137.22 128.679,139.723" id="Fill-2" fill="#E0F2F2" sketch:type="MSShapeGroup"></path>
                <path d="M7.76,92.219 L11.878,96.337 M11.878,92.219 L7.76,96.337" id="Stroke-8" stroke="#CBCCCB" stroke-width="1.141" stroke-linecap="round" sketch:type="MSShapeGroup"></path>
                <path d="M101.667,0.965 L100.65,19.227 C100.684,21.496 102.551,23.308 104.82,23.275 C104.82,23.275 119.903,21.737 123.407,25.647" id="Fill-9" fill="#E4E5E3" sketch:type="MSShapeGroup"></path>
                <path d="M101.667,0.965 L100.65,19.227 C100.684,21.496 102.551,23.308 104.82,23.275 C104.82,23.275 119.903,21.737 123.407,25.647" id="Stroke-10" stroke="#333841" stroke-width="2.283" stroke-linecap="round" stroke-linejoin="round" sketch:type="MSShapeGroup"></path>
                <path d="M118.763,121.864 C118.342,122.389 117.56,122.437 117.077,121.969 L103.14,110.689 C102.688,110.249 101.966,110.26 101.526,110.712 L92.416,122.414 C91.977,122.866 91.254,122.877 90.802,122.438 L76.784,111.079 C76.332,110.64 75.609,110.65 75.17,111.103 L66.06,122.804 C65.62,123.257 64.898,123.267 64.446,122.828 L50.428,111.469 C49.975,111.03 49.253,111.041 48.813,111.493 L39.782,123.113 C39.313,123.596 38.531,123.571 38.094,123.059 L24.559,111.045 C24.559,111.045 19.63,86.599 19.293,63.807 C19.216,58.619 19.167,52.342 19.567,45.766 C19.74,42.912 22.974,39.297 22.974,39.297 L20.109,38.453 L24.607,33.393 L20.438,33.644 C21.531,18.44 22.997,5.587 22.997,5.587 C23.274,3.214 24.682,1.671 29.008,1.607 L64.113,1.087 L73.003,3.334 L74.3,0.936 L100.519,0.548 C101.265,0.537 101.982,0.842 102.491,1.388 L121.778,22.081 C123.02,23.413 123.646,25.201 123.508,27.017 C123.004,33.647 121.838,50.48 122.013,62.286 C122.235,77.283 127.279,109.524 127.279,109.524 L118.763,121.864 Z" id="Stroke-11" stroke="#333841" stroke-width="2.283" stroke-linecap="round" stroke-linejoin="round" sketch:type="MSShapeGroup"></path>
                <path d="M139.994,124.098 L132.884,114.858 C132.228,114.005 132.388,112.782 133.24,112.126 C134.092,111.47 135.316,111.63 135.972,112.482 L143.081,121.722 C143.737,122.575 143.578,123.798 142.725,124.454 C141.872,125.11 140.65,124.951 139.994,124.098" id="Fill-13" fill="#A8DBE7" sketch:type="MSShapeGroup"></path>
                <path d="M135.227,113.699 L142.035,122.432 C142.462,122.98 142.502,123.682 142.243,124.275 C143.022,123.647 143.167,122.524 142.55,121.733 L135.742,113 C135.114,112.194 133.942,112.044 133.125,112.665 C132.863,112.863 132.696,113.125 132.574,113.405 C132.589,113.393 132.594,113.376 132.61,113.364 C133.427,112.743 134.599,112.893 135.227,113.699" id="Fill-14" fill="#FFFFFF" sketch:type="MSShapeGroup"></path>
                <path d="M132.473,113.481 L130.187,110.509 L132.459,108.761 L134.746,111.733 C134.746,111.733 134.001,111.635 133.285,112.185 C132.57,112.736 132.473,113.481 132.473,113.481 L132.473,113.481 Z" id="Fill-15" fill="#FFFFFF" sketch:type="MSShapeGroup"></path>
                <path d="M132.473,113.481 L130.187,110.509 L132.459,108.761 L134.746,111.733 C134.746,111.733 134.001,111.635 133.285,112.185 C132.57,112.736 132.473,113.481 132.473,113.481 L132.473,113.481 Z" id="Stroke-16" stroke="#333841" stroke-width="0.571" stroke-linecap="round" stroke-linejoin="round" sketch:type="MSShapeGroup"></path>
                <path d="M139.994,124.098 L132.884,114.858 C132.228,114.005 132.388,112.782 133.24,112.126 C134.092,111.47 135.316,111.63 135.972,112.482 L143.081,121.722 C143.737,122.575 143.578,123.798 142.725,124.454 C141.872,125.11 140.65,124.951 139.994,124.098 L139.994,124.098 Z" id="Stroke-17" stroke="#333841" stroke-width="1.141" stroke-linecap="round" stroke-linejoin="round" sketch:type="MSShapeGroup"></path>
                <path d="M133.596,92.221 C137.778,97.655 136.762,105.45 131.327,109.632 C125.893,113.813 118.098,112.797 113.917,107.363 C109.735,101.928 110.751,94.133 116.185,89.952 C121.62,85.771 129.415,86.787 133.596,92.221 L133.596,92.221 Z" id="Fill-18" fill="#FFFFFF" sketch:type="MSShapeGroup"></path>
                <path d="M133.596,92.221 C137.778,97.655 136.762,105.45 131.327,109.632 C125.893,113.813 118.098,112.797 113.917,107.363 C109.735,101.928 110.751,94.133 116.185,89.952 C121.62,85.771 129.415,86.787 133.596,92.221 L133.596,92.221 Z" id="Stroke-19" stroke="#333841" stroke-width="1.141" stroke-linecap="round" stroke-linejoin="round" sketch:type="MSShapeGroup"></path>
                <path d="M119.145,108.079 C114.568,105.532 112.922,99.757 115.469,95.18 C118.016,90.603 123.791,88.958 128.368,91.504 C132.945,94.051 134.591,99.826 132.044,104.403 C129.497,108.98 123.722,110.626 119.145,108.079 L119.145,108.079 Z" id="Fill-20" fill="#FFFFFF" sketch:type="MSShapeGroup"></path>
                <path d="M119.145,108.079 C114.568,105.532 112.922,99.757 115.469,95.18 C118.016,90.603 123.791,88.958 128.368,91.504 C132.945,94.051 134.591,99.826 132.044,104.403 C129.497,108.98 123.722,110.626 119.145,108.079 L119.145,108.079 Z" id="Stroke-21" stroke="#333841" stroke-width="0.571" stroke-linecap="round" stroke-linejoin="round" sketch:type="MSShapeGroup"></path>
                <path d="M54.642,59.323 C54.663,60.721 53.705,61.868 52.502,61.886 C51.3,61.904 50.308,60.785 50.288,59.387 C50.267,57.989 51.225,56.842 52.427,56.824 C53.63,56.806 54.622,57.925 54.642,59.323 L54.642,59.323 Z M88.3,58.824 C88.321,60.222 87.363,61.37 86.16,61.388 C84.958,61.405 83.966,60.287 83.946,58.889 C83.925,57.491 84.883,56.343 86.085,56.325 C87.288,56.307 88.28,57.426 88.3,58.824 L88.3,58.824 Z M60.808,80.2 L79.382,80.2 L60.808,80.2 Z" id="Stroke-22" stroke="#333841" stroke-width="2.283" stroke-linecap="round" stroke-linejoin="round" sketch:type="MSShapeGroup"></path>
            </g>
        </g>
    </g>
</svg>