<?xml version="1.0" encoding="UTF-8" standalone="no"?>
<svg width="9px" height="5px" viewBox="0 0 9 5" version="1.1" xmlns="http://www.w3.org/2000/svg" xmlns:xlink="http://www.w3.org/1999/xlink" xmlns:sketch="http://www.bohemiancoding.com/sketch/ns">
    <!-- Generator: Sketch 3.3.3 (12081) - http://www.bohemiancoding.com/sketch -->
    <title>Imported Layers Copy 5</title>
    <desc>Created with Sketch.</desc>
    <defs></defs>
    <g id="Help" stroke="none" stroke-width="1" fill="none" fill-rule="evenodd" sketch:type="MSPage">
        <g id="Help_3A_Videos_VD" sketch:type="MSArtboardGroup" transform="translate(-1395.000000, -914.000000)" fill="#2873E8">
            <g id="Getting-Started-+-Prototyping-Tool-+-User-Research" sketch:type="MSLayerGroup" transform="translate(168.000000, 455.000000)">
                <g id="Prototyping-Tool" transform="translate(0.000000, 436.200000)" sketch:type="MSShapeGroup">
                    <g id="Show-More-Link" transform="translate(1137.000000, 18.000000)">
                        <path d="M92.1359783,3.45475 C91.9546739,3.62155 91.9546739,3.89215 92.1359783,4.05895 L95.5851087,7.23215 L92.1359783,10.40535 C91.9546739,10.57215 91.9546739,10.84255 92.1359783,11.00955 C92.2266304,11.09295 92.3457609,11.13475 92.4646739,11.13475 C92.5833696,11.13475 92.7022826,11.09315 92.7931522,11.00955 L96.5701087,7.53435 C96.7516304,7.36735 96.7516304,7.09695 96.5701087,6.92995 L92.7929348,3.45475 C92.611413,3.28775 92.3175,3.28775 92.1359783,3.45475 Z" id="Imported-Layers-Copy-5" transform="translate(94.353125, 7.232125) rotate(-270.000000) translate(-94.353125, -7.232125) "></path>
                    </g>
                </g>
            </g>
        </g>
    </g>
</svg>