<?xml version="1.0" encoding="UTF-8" standalone="no"?>
<svg width="24px" height="14px" viewBox="0 0 24 14" version="1.1" xmlns="http://www.w3.org/2000/svg" xmlns:xlink="http://www.w3.org/1999/xlink" xmlns:sketch="http://www.bohemiancoding.com/sketch/ns">
    <!-- Generator: Sketch 3.3.3 (12072) - http://www.bohemiancoding.com/sketch -->
    <title>Eye Icon</title>
    <desc>Created with Sketch.</desc>
    <defs></defs>
    <g id="UI-toolkit" stroke="none" stroke-width="1" fill="none" fill-rule="evenodd" sketch:type="MSPage">
        <g id="Icon-Set" sketch:type="MSArtboardGroup" transform="translate(-803.000000, -299.000000)">
            <g id="Eye-Icon" sketch:type="MSLayerGroup" transform="translate(803.000000, 299.000000)">
                <path d="M11.9707758,1 C17.4087731,1 21.4325349,5.18306284 22.9096253,6.98107838 C23.0384778,7.13706638 23.028002,7.3428967 22.8844833,7.50349973 C21.4084405,9.15660334 17.3899166,13 11.9697282,13 C6.54849224,13 2.57082403,9.10491501 1.11154254,7.43058226 C0.971166575,7.26905623 0.961738338,7.06507192 1.08954332,6.91000692 C2.54882481,5.13322052 6.53173093,1 11.9707758,1 M11.9713205,0 C6.0579003,0 1.81092301,4.48 0.287437301,6.36253333 C-0.114303794,6.85813333 -0.0892601934,7.518 0.327089668,8.00426667 C1.88396685,9.81866667 6.10903098,14 11.970277,14 C17.8190013,14 22.0785004,9.8868 23.6614646,8.08733333 C24.0892928,7.60106667 24.1174669,6.93373333 23.7125953,6.43346667 C22.1713704,4.52946667 17.8836973,0 11.9713205,0" id="Imported-Layers" fill="#999999" sketch:type="MSShapeGroup"></path>
                <circle id="Oval-16" fill="#999999" sketch:type="MSShapeGroup" cx="12" cy="7" r="1"></circle>
                <circle id="Oval-15" stroke="#979797" sketch:type="MSShapeGroup" cx="12" cy="7" r="4"></circle>
            </g>
        </g>
    </g>
</svg>