<svg xmlns="http://www.w3.org/2000/svg" width="85" height="18" viewBox="0 0 85 18">
  <g fill="#24D9C3" fill-rule="evenodd">
    <path d="M33.9956306,0 L33.9956306,10.5458248 C33.9956306,11.63748 33.8219609,12.6395066 33.4746162,13.5519348 C33.1272716,14.464363 32.6302169,15.2505059 31.9834373,15.910387 C31.3366577,16.5702681 30.5501535,17.0835012 29.6239012,17.4501018 C28.6976489,17.8167024 27.6556307,18 26.4978153,18 C25.332015,18 24.2860043,17.8167024 23.359752,17.4501018 C22.4334997,17.0835012 21.6469955,16.5702681 21.0002159,15.910387 C20.3534363,15.2505059 19.8583778,14.464363 19.5150257,13.5519348 C19.1716735,12.6395066 19,11.63748 19,10.5458248 L19,0 L22.9972799,0 L22.9462186,0 L22.9462184,11.3025635 C22.9462184,13.3359755 24.5363224,15.0183105 26.4978151,15 C28.4593078,15.0183105 30.0494118,13.3359755 30.0494118,11.3025635 L30.049412,0 L29.9983507,0 L33.9956306,0 Z"/>
    <polygon points="45 18 41 18 41 0 45 0"/>
    <polygon points="56 .638 56 0 52 0 52 18 59 18 63 18 63 15 56 15"/>
    <path d="M84.0377358 8.99382292C84.0377358 10.2951335 83.8173506 11.4955333 83.3765735 12.5950583 82.9357964 13.6945834 82.3150784 14.6458436 81.5144007 15.4488675 80.7137231 16.2518915 79.7492849 16.8778289 78.6210573 17.3266987 77.4928297 17.7755685 76.2412841 18 74.8663831 18L68 18 68 0 74.8663831 0C76.2412841 0 77.4928297.226490528 78.6210573.67947838 79.7492849 1.13246623 80.7137231 1.75840369 81.5144007 2.55730954 82.3150784 3.35621539 82.9357964 4.3054166 83.3765735 5.40494166 83.8173506 6.50446672 84.0377358 7.70074851 84.0377358 8.99382292L84.0377358 8.99382292zM80 8.99359658C80 8.07150019 79.8826008 7.23906455 79.6477987 6.49626467 79.4129967 5.7534648 79.0754739 5.12380194 78.6352201 4.6072572 78.1949664 4.09071247 77.6561877 3.6937047 77.0188679 3.41622199 76.3815482 3.13873927 75.6561886 3 74.8427673 3L72 3 72 15 74.8427673 15C75.6561886 15 76.3815482 14.8612607 77.0188679 14.583778 77.6561877 14.3062953 78.1949664 13.9092875 78.6352201 13.3927428 79.0754739 12.8761981 79.4129967 12.2465352 79.6477987 11.5037353 79.8826008 10.7609355 80 9.92423091 80 8.99359658L80 8.99359658zM0 18L0 0 6.65248227 0C7.9018975 0 8.96512564.115304269 9.84219858.345916266 10.7192715.576528264 11.4349854.901851023 11.9893617 1.3218943 12.543738 1.74193758 12.9471028 2.25257078 13.1994681 2.8538092 13.4518334 3.45504762 13.5780142 4.12628318 13.5780142 4.86753603 13.5780142 5.27110703 13.5200951 5.66025894 13.4042553 6.03500343 13.2884155 6.40974793 13.1063842 6.76183775 12.858156 7.09128346 12.6099278 7.42072917 12.2913731 7.71928487 11.9024823 7.98695951 11.5135914 8.25463415 11.046102 8.48730169 10.5 8.68496911 11.6914953 8.97323411 12.5726922 9.4406282 13.143617 10.0871654 13.7145419 10.7337026 14 11.5634816 14 12.5765271 14 13.3424884 13.8510653 14.054904 13.5531915 14.7137955 13.2553177 15.3726869 12.8188563 15.9471492 12.2437943 16.4371997 11.6687323 16.9272502 10.9592241 17.3102251 10.1152482 17.5861359 9.27127238 17.8620467 8.30733402 18 7.22340426 18L0 18zM4 10.5L4 15 7.13157895 15C7.71930118 15 8.19955954 14.9297528 8.57236842 14.7892562 8.9451773 14.6487596 9.23684105 14.4669433 9.44736842 14.2438017 9.65789579 14.02066 9.80263118 13.7685964 9.88157895 13.4876033 9.96052671 13.2066102 10 12.921489 10 12.6322314 10 12.3016512 9.95394783 12.0041336 9.86184211 11.7396694 9.76973638 11.4752053 9.61184322 11.252067 9.38815789 11.0702479 9.16447257 10.8884288 8.86842289 10.7479344 8.5 10.6487603 8.13157711 10.5495863 7.66666947 10.5 7.10526316 10.5L4 10.5zM4 3L4 7.5 6.87061404 7.5C7.40935942 7.5 7.84959624 7.42975277 8.19133772 7.2892562 8.53307919 7.14875963 8.80043763 6.96694326 8.99342105 6.74380165 9.18640447 6.52066004 9.31907859 6.26859645 9.39144737 5.98760331 9.46381615 5.70661017 9.5 5.42148905 9.5 5.1322314 9.5 4.80165124 9.45778551 4.50413355 9.37335526 4.23966942 9.28892502 3.97520529 9.14418962 3.75206702 8.93914474 3.57024793 8.73409985 3.38842884 8.46272099 3.24793438 8.125 3.14876033 7.78727901 3.04958628 7.36111368 3 6.84649123 3L4 3z"/>
  </g>
</svg>
