<?xml version="1.0" encoding="UTF-8" standalone="no"?>
<svg width="1600px" height="100px" viewBox="0 0 754 213" version="1.1" xmlns="http://www.w3.org/2000/svg" xmlns:xlink="http://www.w3.org/1999/xlink">
    <!-- Generator: Sketch 3.6.1 (26313) - http://www.bohemiancoding.com/sketch -->
    <title>Illustration</title>
    <desc>Created with Sketch.</desc>
    <defs>
        <path id="path-1" d="M58.6712507,0.575604399 L0.247972205,0.575604399 L0.247972205,59.3589005 L58.6712507,59.3589005 L58.6712507,0.575604399 Z"></path>
    </defs>
    <g id="Help" stroke="none" stroke-width="1" fill="none" fill-rule="evenodd" opacity="0.200000018">
        <g id="Help_1_VD" transform="translate(-444.000000, -107.000000)">
            <g id="Header">
                <g id="Illustration" transform="translate(444.000000, 107.000000)">
                    <path d="M689.955124,17.3734249 L689.955124,12.6908558 C689.955124,12.3488392 689.975522,12.0179451 690.017245,11.6935391 C690.058969,11.3682062 689.826246,11.2245407 689.572198,11.4126962 C689.313514,11.5999248 689.042777,11.7871534 688.751642,11.974382 L684.706347,14.3295696 L683.19875,11.7704696 L687.268151,9.41528201 C687.576903,9.2280534 687.876382,9.07604601 688.176789,8.95555235 C688.476269,8.83691243 688.476269,8.58109512 688.176789,8.44299085 C687.876382,8.3076672 687.576903,8.14546419 687.268151,7.95823558 L683.19875,5.57802233 L684.681314,3.01892234 L688.751642,5.4241612 C689.042777,5.61324356 689.31815,5.80510654 689.584251,6.00067702 C689.846644,6.1962475 690.058969,6.05721635 690.017245,5.73188347 C689.975522,5.40747746 689.955124,5.07658333 689.955124,4.7345667 L689.955124,9.26874318e-05 L692.974956,9.26874318e-05 L692.974956,4.68266174 C692.974956,5.0413621 692.954558,5.38708622 692.912834,5.7198341 C692.866475,6.05258198 693.079727,6.1962475 693.333775,6.00067702 C693.587823,5.80510654 693.870613,5.61324356 694.179365,5.4241612 L698.220024,3.07175418 L699.732257,5.62992729 L695.661929,7.95823558 C695.354104,8.14546419 695.053697,8.3039597 694.754218,8.43094148 C694.453811,8.55977701 695.011974,9.04082478 695.661929,9.41528201 L699.732257,11.7954953 L698.248766,14.3545952 L694.179365,11.974382 C693.870613,11.7871534 693.587823,11.5999248 693.333775,11.4126962 C693.079727,11.2245407 692.974956,11.9493564 692.974956,12.6658302 L692.974956,17.3734249 L689.955124,17.3734249 Z" id="Fill-13" fill="#FEFEFE"></path>
                    <path d="M85.9037685,87.6095437 L85.9037685,84.2109407 C85.9037685,83.9627054 85.9185734,83.7225429 85.948856,83.4870894 C85.9791386,83.2509632 85.8102288,83.1466909 85.6258412,83.2832539 C85.4380888,83.4191442 85.2415882,83.5550345 85.0302826,83.6909248 L82.0942127,85.4003172 L81,83.5429255 L83.9535666,81.8335331 C84.1776581,81.6976428 84.3950202,81.5873161 84.6130552,81.4998619 C84.8304172,81.4137532 84.8304172,81.2280813 84.6130552,81.1278454 C84.3950202,81.0296276 84.1776581,80.9119009 83.9535666,80.7760106 L81,79.0484547 L82.0760431,77.1910629 L85.0302826,78.9367824 C85.2415882,79.0740182 85.4414536,79.2132721 85.6345895,79.3552169 C85.8250336,79.4971617 85.9791386,79.3962531 85.948856,79.1601269 C85.9185734,78.9246734 85.9037685,78.6845108 85.9037685,78.4362756 L85.9037685,75 L88.0955585,75 L88.0955585,78.398603 C88.0955585,78.6589473 88.0807537,78.9098735 88.0504711,79.1513815 C88.0168237,79.3928895 88.1716016,79.4971617 88.3559892,79.3552169 C88.5403769,79.2132721 88.7456258,79.0740182 88.9697174,78.9367824 L91.9024226,77.2294082 L93,79.0861272 L90.0457604,80.7760106 C89.8223419,80.9119009 89.6043069,81.0269367 89.3869448,81.1191 C89.1689098,81.2126086 89.5740242,81.5617525 90.0457604,81.8335331 L93,83.5610891 L91.923284,85.4184808 L88.9697174,83.6909248 C88.7456258,83.5550345 88.5403769,83.4191442 88.3559892,83.2832539 C88.1716016,83.1466909 88.0955585,83.6727613 88.0955585,84.1927771 L88.0955585,87.6095437 L85.9037685,87.6095437 Z" id="Fill-13" fill="#FEFEFE"></path>
                    <path d="M390.224165,182.373332 L390.224165,177.690763 C390.224165,177.348747 390.244563,177.017852 390.286286,176.693446 C390.328009,176.368114 390.095286,176.224448 389.841238,176.412603 C389.582555,176.599832 389.311818,176.787061 389.020682,176.974289 L384.975388,179.329477 L383.46779,176.770377 L387.537191,174.415189 C387.845943,174.227961 388.145423,174.075953 388.44583,173.95546 C388.745309,173.83682 388.745309,173.581002 388.44583,173.442898 C388.145423,173.307575 387.845943,173.145372 387.537191,172.958143 L383.46779,170.57793 L384.950354,168.01883 L389.020682,170.424069 C389.311818,170.613151 389.587191,170.805014 389.853292,171.000584 C390.115684,171.196155 390.328009,171.057124 390.286286,170.731791 C390.244563,170.407385 390.224165,170.076491 390.224165,169.734474 L390.224165,165 L393.243996,165 L393.243996,169.682569 C393.243996,170.041269 393.223598,170.386994 393.181875,170.719741 C393.135516,171.052489 393.348768,171.196155 393.602815,171.000584 C393.856863,170.805014 394.139654,170.613151 394.448405,170.424069 L398.489064,168.071661 L400.001298,170.629835 L395.930969,172.958143 C395.623145,173.145372 395.322738,173.303867 395.023258,173.430849 C394.722851,173.559684 395.281015,174.040732 395.930969,174.415189 L400.001298,176.795403 L398.517807,179.354503 L394.448405,176.974289 C394.139654,176.787061 393.856863,176.599832 393.602815,176.412603 C393.348768,176.224448 393.243996,176.949264 393.243996,177.665738 L393.243996,182.373332 L390.224165,182.373332 Z" id="Fill-13" fill="#FEFEFE"></path>
                    <path d="M630.141971,139.930679 L630.141971,136.401142 C630.141971,136.143471 630.157733,135.894142 630.189257,135.64852 C630.220781,135.403825 630.044617,135.295381 629.85269,135.437193 C629.657982,135.578077 629.454002,135.719889 629.23426,135.860774 L626.185686,137.635738 L625.048961,135.706913 L628.116079,133.931949 C628.348801,133.790137 628.575034,133.676131 628.801266,133.585298 C629.027498,133.495391 629.027498,133.302601 628.801266,133.198791 C628.575034,133.096835 628.348801,132.974487 628.116079,132.832676 L625.048961,131.039174 L626.166215,129.110348 L629.23426,130.922388 C629.454002,131.066053 629.661691,131.209719 629.862889,131.358019 C630.060379,131.505392 630.220781,131.399728 630.189257,131.155033 C630.157733,130.910338 630.141971,130.661009 630.141971,130.403338 L630.141971,126.833945 L632.418203,126.833945 L632.418203,130.364409 C632.418203,130.63413 632.403368,130.894581 632.371843,131.145764 C632.336611,131.396947 632.497013,131.505392 632.68894,131.358019 C632.879939,131.209719 633.094118,131.066053 633.325914,130.922388 L636.371706,129.149277 L637.51214,131.078103 L634.444095,132.832676 C634.211372,132.974487 633.98514,133.093127 633.759835,133.189522 C633.533602,133.286844 633.954543,133.649252 634.444095,133.931949 L637.51214,135.72545 L636.393959,137.655203 L633.325914,135.860774 C633.094118,135.719889 632.879939,135.578077 632.68894,135.437193 C632.497013,135.295381 632.418203,135.842237 632.418203,136.381677 L632.418203,139.930679 L630.141971,139.930679 Z" id="Fill-15" fill="#FEFEFE"></path>
                    <path d="M515.755077,171.265056 L515.755077,166.582487 C515.755077,166.24047 515.775475,165.909576 515.817198,165.58517 C515.858921,165.259837 515.626199,165.116172 515.372151,165.304327 C515.113467,165.491556 514.84273,165.678784 514.551595,165.866013 L510.5063,168.221201 L508.998702,165.662101 L513.068104,163.306913 C513.376855,163.119684 513.676335,162.967677 513.976742,162.847183 C514.276222,162.728543 514.276222,162.472726 513.976742,162.334622 C513.676335,162.199298 513.376855,162.037095 513.068104,161.849867 L508.998702,159.469653 L510.481266,156.910553 L514.551595,159.315792 C514.84273,159.504874 515.118103,159.696737 515.384204,159.892308 C515.646597,160.087878 515.858921,159.948847 515.817198,159.623514 C515.775475,159.299108 515.755077,158.968214 515.755077,158.626198 L515.755077,153.891724 L518.774908,153.891724 L518.774908,158.574293 C518.774908,158.932993 518.75451,159.278717 518.712787,159.611465 C518.666428,159.944213 518.87968,160.087878 519.133728,159.892308 C519.387776,159.696737 519.670566,159.504874 519.979318,159.315792 L524.019976,156.963385 L525.53221,159.521558 L521.461881,161.849867 C521.154057,162.037095 520.85365,162.195591 520.55417,162.322572 C520.253763,162.451408 520.811927,162.932456 521.461881,163.306913 L525.53221,165.687126 L524.048719,168.246226 L519.979318,165.866013 C519.670566,165.678784 519.387776,165.491556 519.133728,165.304327 C518.87968,165.116172 518.774908,165.840987 518.774908,166.557461 L518.774908,171.265056 L515.755077,171.265056 Z" id="Fill-17" fill="#FEFEFE"></path>
                    <path d="M584.719701,14.6402579 L579.803782,12.6465513 L581.799078,7.73226362 C582.090213,7.0148629 581.744374,6.19735975 581.026735,5.90632122 C580.309096,5.61528268 579.491322,5.9610068 579.200187,6.67840752 L577.205819,11.5917683 L572.2899,9.59806162 C571.572261,9.30702309 570.754487,9.65182033 570.463352,10.3692211 C570.172217,11.0866218 570.518056,11.9041249 571.235694,12.1951635 L576.151613,14.189797 L574.156317,19.1031578 C573.865182,19.8205585 574.211021,20.6380616 574.92866,20.9291002 C575.646299,21.2201387 576.464073,20.8753414 576.755208,20.1579407 L578.749577,15.2436531 L583.665495,17.2382866 C584.383134,17.5293252 585.199981,17.183601 585.492043,16.4662003 C585.783178,15.7487996 585.43734,14.9312964 584.719701,14.6402579" id="Fill-40" fill="#FEFEFE"></path>
                    <path d="M701.227431,151.841478 L702.934373,149.962703 L704.81377,151.670006 C705.088216,151.919335 705.512865,151.898944 705.76135,151.624589 C706.010762,151.350234 705.990364,150.925726 705.715918,150.677323 L703.837448,148.970021 L705.54439,147.092174 C705.793802,146.817819 705.773404,146.39331 705.498958,146.143981 C705.225439,145.895579 704.80079,145.915043 704.551378,146.189398 L702.844436,148.068172 L700.965038,146.36087 C700.690592,146.112467 700.265943,146.131932 700.017458,146.406287 C699.768046,146.680641 699.788444,147.10515 700.06289,147.354479 L701.941361,149.060855 L700.234419,150.939629 C699.985007,151.213057 700.005405,151.637565 700.279851,151.886894 C700.55337,152.136224 700.978019,152.115832 701.227431,151.841478" id="Fill-44" fill="#FEFEFE"></path>
                    <path d="M558.373642,221.212737 L561.160751,218.146637 L564.227868,220.932821 C564.675697,221.339719 565.369229,221.306351 565.775335,220.858671 C566.182368,220.410991 566.148989,219.718616 565.70116,219.311718 L562.634043,216.525534 L565.421151,213.459433 C565.828184,213.011753 565.794806,212.318451 565.346977,211.91248 C564.900075,211.505582 564.206543,211.53895 563.79951,211.985703 L561.012401,215.05273 L557.945284,212.266546 C557.497455,211.859648 556.80485,211.893016 556.397817,212.340696 C555.990784,212.78745 556.024163,213.480752 556.471992,213.886723 L559.539109,216.673834 L556.752001,219.739934 C556.344968,220.187614 556.378346,220.879989 556.826175,221.286887 C557.274004,221.693785 557.966609,221.660417 558.373642,221.212737" id="Fill-44" fill="#FEFEFE"></path>
                    <path d="M248.463847,15.4090764 L245.79449,15.3812702 L245.821379,12.712799 C245.826014,12.3235118 245.512627,12.0037402 245.123211,12.0000327 C244.733794,11.9963252 244.413916,12.3086818 244.410208,12.697969 L244.382392,15.3673671 L241.713036,15.3395608 C241.323619,15.3358533 241.003741,15.64821 241.000033,16.0374972 C240.996324,16.4277113 241.308784,16.746556 241.698201,16.7502635 L244.368485,16.7780698 L244.340669,19.4465409 C244.33696,19.836755 244.649421,20.1555998 245.038837,20.1593073 C245.429181,20.1630148 245.748131,19.8506581 245.75184,19.4613709 L245.779655,16.7928998 L248.449012,16.8197791 C248.839356,16.8234866 249.158306,16.51113 249.162015,16.1218428 C249.166651,15.7325555 248.853263,15.4127839 248.463847,15.4090764" id="Fill-46" fill="#FEFEFE"></path>
                    <path d="M751.602892,208.278021 L748.534847,210.855658 L745.956354,207.788631 C745.579919,207.340951 744.91142,207.282558 744.463592,207.658869 C744.015763,208.03518 743.95735,208.703456 744.333786,209.151136 L746.912279,212.218163 L743.844234,214.795801 C743.396405,215.172112 743.337993,215.840388 743.714429,216.288069 C744.090864,216.735749 744.759363,216.794142 745.207191,216.417831 L748.275236,213.840193 L750.853729,216.907221 C751.230165,217.354901 751.898663,217.413294 752.346492,217.036983 C752.794321,216.660672 752.852733,215.992396 752.476297,215.544715 L749.897805,212.476761 L752.96585,209.899124 C753.413678,209.52374 753.472091,208.855463 753.095655,208.407783 C752.719219,207.960103 752.050721,207.90171 751.602892,208.278021" id="Fill-48" fill="#FEFEFE"></path>
                    <g id="Book" transform="translate(595.000000, 169.000000)" fill="#F0F1F1">
                        <path d="M105.96884,86.9118529 C105.899301,86.9118529 105.827908,86.903511 105.756515,86.8877542 L68.7703021,78.2270406 C63.5938455,77.0119083 58.1670499,76.8497053 53.08053,77.7534078 C52.7680697,77.8090202 52.4593181,77.7033566 52.2460663,77.4781261 C52.0309601,77.2519688 51.943805,76.933124 52.0161252,76.6291092 L65.1199869,20.6987323 L66.9261373,21.1232407 L54.1365902,75.7096499 C59.0627076,75.0200554 64.2391641,75.2628965 69.1940242,76.4224163 L105.277162,84.8708757 L117.959156,30.7460499 L115.209135,30.1027991 L115.632857,28.2981748 L119.285026,29.1536798 C119.782923,29.270466 120.092602,29.7691243 119.975777,30.2677827 L106.870988,86.1972328 C106.769925,86.623595 106.38978,86.9118529 105.96884,86.9118529" id="Fill-1"></path>
                        <path d="M103.703363,83.2731297 L68.3962769,75.0054108 C63.5962562,73.8811122 58.5477508,73.8023279 53.8015066,74.7773997 L52.381064,75.0684383 L65.8168568,17.7282855 L67.62208,18.151867 L54.8408776,72.703055 C59.4295008,71.9569212 64.232303,72.1265392 68.8190718,73.2007865 L102.321862,81.0449239 L115.002929,26.9200981 L112.000714,26.2175273 L112.424436,24.412903 L117.231875,25.5390553 L103.703363,83.2731297 Z" id="Fill-3"></path>
                        <path d="M61.3092693,69.1500677 C63.6837822,69.1500677 66.058295,69.4197881 68.3679051,69.9610827 L99.1067665,77.1582618 L111.786906,23.033436 L81.0508263,15.8362569 C76.844202,14.8500626 72.4085638,14.8204027 68.1861775,15.7435695 L55.5468339,69.6867279 C57.443848,69.3289544 59.3770223,69.1500677 61.3092693,69.1500677 L61.3092693,69.1500677 Z M100.488268,79.3864676 L67.9451102,71.765707 C63.5530495,70.7378034 58.9125041,70.7498527 54.5278609,71.8000013 L53.0647679,72.1503598 L66.6433468,14.2012506 L67.1996559,14.0677807 C71.8670896,12.9508972 76.8024788,12.9379209 81.4736212,14.0316326 L114.016779,21.6523932 L100.488268,79.3864676 Z" id="Fill-5"></path>
                        <path d="M52.9184586,77.7680524 C52.7228232,77.7680524 52.5299694,77.7068787 52.3677126,77.5873119 C48.2102289,74.5193579 43.2766941,72.2577846 38.1002375,71.045433 L1.11309733,62.3847193 C0.615200655,62.2679332 0.305521902,61.7692748 0.422346821,61.2706164 L13.5271357,5.34023944 C13.5827667,5.10203274 13.7311158,4.8944129 13.9406589,4.76465049 C14.150202,4.63396121 14.4014683,4.59410562 14.6416084,4.64971808 L22.2046311,6.4209749 L21.780909,8.22652607 L15.1200342,6.66659659 L2.43989463,60.7923493 L38.5230325,69.2408087 C43.4769654,70.4003284 48.2232095,72.4811613 52.3296981,75.2868098 L65.1201724,20.6994738 L66.9253955,21.1230553 L53.8215338,77.0534323 C53.7492136,77.3565202 53.5313258,77.6030688 53.2383364,77.7105862 C53.134492,77.748588 53.0260117,77.7680524 52.9184586,77.7680524" id="Fill-7"></path>
                        <path d="M54.1869362,75.4915564 L53.0446481,74.5999033 C49.2228043,71.6190755 44.6647781,69.4483358 39.8656846,68.3249642 L4.55859798,60.0572452 L18.0852547,2.32409772 L22.9019646,3.45025002 L22.4800969,5.25580119 L19.4695372,4.55044984 L6.78754326,58.6752756 L40.2894067,66.519413 C44.8752484,67.5936603 49.2524741,69.5753176 53.0353762,72.2799369 L65.8165787,17.7287489 L67.6218018,18.1523305 L54.1869362,75.4915564 Z" id="Fill-9"></path>
                        <path d="M11.3953591,56.6209514 L42.131439,63.8181305 C46.3204468,64.7978366 50.3054746,66.6710496 53.7416107,69.264444 L66.3809543,15.3203587 C63.0078666,12.6194469 59.0200572,10.6785721 54.813433,9.69330468 L24.0764259,2.4961256 L11.3953591,56.6209514 Z M54.8718454,72.5724584 L53.717504,71.6103629 C50.251698,68.7212956 46.0997775,66.6506584 41.708644,65.6227548 L9.16641385,58.0019941 L22.6949249,0.267919738 L55.2362279,7.88868038 C59.9073703,8.98239207 64.325392,11.1846455 68.0100129,14.2581607 L68.4485699,14.6233492 L54.8718454,72.5724584 Z" id="Fill-11"></path>
                    </g>
                    <g id="Page" transform="translate(422.000000, 161.000000)" fill="#FEFEFE">
                        <path d="M18.2271907,2.0224364 C18.1641424,2.0224364 18.1057299,2.06414575 18.0890406,2.12810008 L1.86057591,61.7140693 C1.84295946,61.7789505 1.89580882,61.8707111 1.95978437,61.8892486 L49.8867438,74.9331509 C49.9331029,74.9452002 49.9711173,74.9340777 49.9961512,74.9192478 C50.0184036,74.9062715 50.0490006,74.880319 50.0619812,74.8339753 L62.1858116,30.3189825 L51.1124782,10.9677004 L18.264278,2.02707077 C18.2512975,2.02336328 18.2401713,2.0224364 18.2271907,2.0224364 M49.928467,76.7933876 C49.7523024,76.7933876 49.5742835,76.7702158 49.3990461,76.7220183 L1.47394106,63.678116 C0.959355108,63.538158 0.529142708,63.206337 0.264895868,62.7428998 C-0.000278154569,62.2803896 -0.0688896149,61.7418756 0.0711148515,61.2274603 L16.2995796,1.64056418 C16.5897875,0.578366216 17.6912796,-0.054688943 18.7501213,0.238203341 L52.3400671,9.37996474 L64.1764712,30.0659458 L51.8514422,75.3205843 C51.7114378,75.8349996 51.3795066,76.2641424 50.9159157,76.5292284 C50.6099457,76.7034808 50.2715243,76.7933876 49.928467,76.7933876" id="Fill-21"></path>
                        <path d="M53.6299625,40.3201417 L16.4722209,30.207016 L16.9005789,28.6359641 L54.0583206,38.7490897 L53.6299625,40.3201417 Z" id="Fill-23"></path>
                        <path d="M50.4854251,53.2899867 L13.3276835,43.1768611 L13.7560415,41.6058091 L50.9137832,51.7189348 L50.4854251,53.2899867 Z" id="Fill-25"></path>
                        <path d="M62.937478,31.0868051 L48.2295916,27.0845618 C47.1670411,26.7944502 46.5384118,25.6961041 46.8267654,24.6339061 L50.831264,9.93089883 L52.620725,10.4175078 L48.6162264,25.1205152 C48.5949012,25.1965188 48.6403332,25.2743763 48.7172893,25.2956944 L63.4242485,29.2979377 L62.937478,31.0868051 Z" id="Fill-19"></path>
                    </g>
                    <g id="Page" transform="translate(0.001298, 103.000000)">
                        <mask id="mask-2" fill="white">
                            <use xlink:href="#path-1"></use>
                        </mask>
                        <g id="Clip-32"></g>
                        <path d="M2.12919531,12.9540109 L21.0075459,57.4782725 L56.7893496,42.3183162 L42.7026751,9.09172563 L26.6067974,2.58136042 L2.12919531,12.9540109 Z M20.9648955,59.3589005 C20.2769266,59.3589005 19.621409,58.9557102 19.3358369,58.2827994 L0.387947711,13.5972617 C0.00780313306,12.7000474 0.428743714,11.6600944 1.32625579,11.2800759 L26.5910353,0.575604399 L44.10921,7.66155856 L44.2594135,8.01469767 L58.5305973,41.6732117 C58.7141793,42.1079157 58.7188152,42.5889635 58.5417234,43.0255213 C58.3646317,43.4639328 58.0280647,43.8059495 57.5932164,43.9903974 L21.6537917,59.2189425 C21.4284865,59.3144105 21.1948366,59.3589005 20.9648955,59.3589005 L20.9648955,59.3589005 Z" id="Fill-31" fill="#FEFEFE" mask="url(#mask-2)"></path>
                        <path d="M32.0479643,14.0446639 C31.8245135,14.0446639 31.6001355,14.0020277 31.3859565,13.9149015 C30.9473994,13.7387954 30.6043421,13.4014131 30.4198329,12.9667091 L25.7449818,1.93968533 L27.4528509,1.21579649 L32.0933962,12.1631091 L43.0434144,7.52317622 L43.7684707,9.23047872 L32.7377877,13.903779 C32.5161912,13.9973933 32.2825414,14.0446639 32.0479643,14.0446639" id="Fill-29" fill="#FEFEFE" mask="url(#mask-2)"></path>
                        <path d="M42.4305472,19.2714009 L14.5659497,31.077926 L14.0661986,29.8998687 L41.9307962,18.0933436 L42.4305472,19.2714009 Z" id="Fill-34" fill="#FEFEFE" mask="url(#mask-2)"></path>
                        <path d="M46.7940507,28.809123 L18.9294531,40.6156481 L18.4297021,39.4375908 L46.2942996,27.6310657 L46.7940507,28.809123 Z" id="Fill-36" fill="#FEFEFE" mask="url(#mask-2)"></path>
                        <path d="M37.9521659,43.9422 L23.0217559,50.2681172 L22.522932,49.0900599 L37.4524149,42.7641427 L37.9521659,43.9422 Z" id="Fill-38" fill="#FEFEFE" mask="url(#mask-2)"></path>
                    </g>
                    <g id="Video" transform="translate(625.000000, 35.369679)" fill="#FEFEFE">
                        <path d="M1.71445826,42.7134558 L79.9619481,56.511994 L81.3854041,48.431439 L3.13791427,34.6329008 L1.71445826,42.7134558 Z M80.5023157,57.948981 C80.463718,57.948981 80.4244548,57.9456516 80.3865226,57.9383268 L0.828042458,43.9093912 C0.466022791,43.845466 0.224454521,43.5005358 0.288340344,43.1382925 L1.94271698,33.7459375 C1.97332894,33.5721407 2.07115411,33.4176546 2.21622817,33.3164395 C2.36063675,33.2152245 2.54031562,33.1746053 2.71333973,33.206568 L82.2718199,47.2355035 C82.6338395,47.2994288 82.8754078,47.6443589 82.8108565,48.0066022 L81.1571453,57.3989572 C81.1265334,57.5720882 81.0287082,57.7272402 80.8836342,57.8284552 C80.7711685,57.90703 80.638073,57.948981 80.5023157,57.948981 L80.5023157,57.948981 Z" id="Fill-50"></path>
                        <path d="M1.71379278,42.7134558 L79.9612826,56.511994 L87.2243022,15.274195 L8.97681235,1.4763227 L1.71379278,42.7134558 Z M80.5016502,57.948981 C80.4630525,57.948981 80.4237893,57.9456516 80.3858571,57.9383268 L0.827376981,43.9093912 C0.653687398,43.8787604 0.499296657,43.7808748 0.397478626,43.6357111 C0.296326072,43.4912134 0.25706291,43.3120894 0.287674867,43.1382925 L7.78161507,0.589359433 C7.84550089,0.227116177 8.18955267,-0.0159330674 8.55223781,0.0499898782 L88.110718,14.0782595 C88.2844075,14.1088904 88.4387983,14.206776 88.5406163,14.3519396 C88.6417689,14.4964374 88.6816975,14.6755614 88.6504201,14.8493582 L81.1564799,57.3989572 C81.1258679,57.5720882 81.0280427,57.7272402 80.8829687,57.8284552 C80.770503,57.90703 80.6374076,57.948981 80.5016502,57.948981 L80.5016502,57.948981 Z" id="Fill-52"></path>
                        <path d="M42.0615501,29.7105876 L43.621429,20.8542727 L49.0370835,26.3751529 L42.0615501,29.7105876 Z" id="Fill-54"></path>
                        <path d="M35.8085255,46.1453111 L12.9360697,42.1120254 C12.6212989,42.0567567 12.4116736,41.757107 12.4669082,41.4421418 L12.8082981,39.5057385 C12.8635327,39.1914392 13.1629975,38.9816844 13.4771028,39.0369531 L36.3502241,43.0702388 C36.6643294,43.1255075 36.8739547,43.4251572 36.8187201,43.7394565 L36.4779957,45.6765257 C36.4220956,45.990825 36.1226308,46.2005798 35.8085255,46.1453111" id="Fill-56"></path>
                        <path d="M45.0393615,18.6927325 C43.6212294,18.6927325 42.2396984,19.12556 41.0538178,19.9565886 C39.5278783,21.0260053 38.509698,22.6254691 38.186276,24.4613232 C37.8635195,26.2971774 38.2734535,28.1490128 39.3422101,29.6758948 C40.4109667,31.2027768 42.0094433,32.22092 43.8441643,32.5452077 C47.6320612,33.2104301 51.2549198,30.6727297 51.923059,26.883825 C52.2458155,25.0479709 51.8358815,23.1968013 50.7664594,21.6699193 C49.6983683,20.1430373 48.0992263,19.1235623 46.2645053,18.7999406 C45.8559022,18.7286905 45.4459682,18.6927325 45.0393615,18.6927325 M45.0586604,33.9835265 C44.5821786,33.9835265 44.0983766,33.9415755 43.6125781,33.8556759 C41.4284816,33.4707925 39.5245509,32.2582098 38.2521583,30.4396687 C36.9797656,28.6211277 36.4906398,26.4163714 36.8759511,24.2295941 C37.2612625,22.0441486 38.4730967,20.139042 40.2898498,18.8658635 C42.1072684,17.5933509 44.3086674,17.1005935 46.4954259,17.4888064 C51.0060313,18.284543 54.0286293,22.602163 53.2333839,27.1148883 C52.5239851,31.141515 49.0109302,33.9835265 45.0586604,33.9835265" id="Fill-58"></path>
                        <path d="M7.89594407,41.531504 L9.31740365,41.781878 L9.96424761,38.1095038 L8.54278804,37.8584639 L7.89594407,41.531504 Z" id="Fill-60"></path>
                        <path d="M5.86870049,41.1740551 L7.29016006,41.4244291 L7.93700402,37.7520549 L6.51554445,37.501015 L5.86870049,41.1740551 Z" id="Fill-62"></path>
                    </g>
                    <g id="Video" transform="translate(145.249987, 189.685245) rotate(-26.000000) translate(-145.249987, -189.685245) translate(97.749987, 158.685245)" fill="#FEFEFE">
                        <path d="M1.83003972,45.5083217 L85.3526412,60.2097384 L86.8720605,51.6004492 L3.34945905,36.8990324 L1.83003972,45.5083217 Z M85.9294381,61.7407517 C85.8882383,61.7407517 85.8463282,61.7372044 85.8058387,61.7294004 L0.883865545,46.7825107 C0.497440058,46.7144026 0.239586286,46.3469027 0.307779019,45.9609568 L2.07368667,35.9540326 C2.10636235,35.7688637 2.21078247,35.6042691 2.36563681,35.4964313 C2.5197808,35.3885935 2.71157286,35.3453164 2.89626151,35.3793705 L87.8182347,50.3262602 C88.2046602,50.3943683 88.462514,50.7618682 88.3936109,51.1478141 L86.6284136,61.1547383 C86.5957379,61.3391977 86.4913178,61.5045018 86.3364634,61.6123396 C86.2164158,61.6960558 86.0743476,61.7407517 85.9294381,61.7407517 L85.9294381,61.7407517 Z" id="Fill-50"></path>
                        <path d="M1.82932937,45.5083217 L85.3519309,60.2097384 L93.1045922,16.2736301 L9.58199071,1.5729228 L1.82932937,45.5083217 Z M85.9287277,61.7407517 C85.8875279,61.7407517 85.8456178,61.7372044 85.8051284,61.7294004 L0.883155204,46.7825107 C0.697756211,46.7498756 0.532957106,46.645585 0.424274938,46.4909229 C0.316303111,46.3369702 0.274392993,46.1461257 0.307068678,45.9609568 L8.30621833,0.627922939 C8.37441106,0.24197705 8.74165734,-0.0169756144 9.12879317,0.0532608617 L94.0507664,14.9994411 C94.2361654,15.0320762 94.4009645,15.1363667 94.5096466,15.2910289 C94.6176185,15.4449816 94.6602389,15.6358261 94.6268529,15.820995 L86.6277032,61.1547383 C86.5950275,61.3391977 86.4906074,61.5045018 86.3357531,61.6123396 C86.2157055,61.6960558 86.0736373,61.7407517 85.9287277,61.7407517 L85.9287277,61.7407517 Z" id="Fill-52"></path>
                        <path d="M44.8971603,31.6546379 L46.5621995,22.2188285 L52.3429543,28.100956 L44.8971603,31.6546379 Z" id="Fill-54"></path>
                        <path d="M38.2225834,49.1647333 L13.8081643,44.867538 C13.472173,44.8086529 13.2484156,44.4893962 13.3073739,44.1538219 L13.6717788,42.0907141 C13.7307371,41.7558493 14.0503906,41.5323696 14.3856715,41.5912547 L38.800801,45.88845 C39.1360819,45.9473351 39.3598393,46.2665919 39.300881,46.6014567 L38.9371864,48.6652739 C38.8775178,49.0001387 38.5578643,49.2236184 38.2225834,49.1647333" id="Fill-56"></path>
                        <path d="M48.075723,19.9158525 C46.5619864,19.9158525 45.0873185,20.3770011 43.8214909,21.2624064 C42.1926791,22.4017981 41.1058574,24.1059195 40.7606317,26.0618989 C40.4161163,28.0178783 40.8536864,29.9908848 41.994494,31.6176751 C43.1353016,33.2444654 44.8415406,34.3292288 46.7999506,34.6747355 C50.8432114,35.3834854 54.7103076,32.6797358 55.42349,28.642912 C55.7680053,26.6869326 55.3304353,24.7146356 54.1889174,23.0878453 C53.0488201,21.461055 51.3418708,20.3748727 49.3834607,20.0300755 C48.9473114,19.9541633 48.5097413,19.9158525 48.075723,19.9158525 M48.0963229,36.2071677 C47.5877187,36.2071677 47.0713009,36.1624717 46.552752,36.0709515 C44.2214129,35.660884 42.1891274,34.3689585 40.8309554,32.431425 C39.4727835,30.4938915 38.9506829,28.1448716 39.3619703,25.815007 C39.7732577,23.4865614 41.0667886,21.4567982 43.0060195,20.1003119 C44.9459607,18.7445351 47.2957686,18.2195352 49.629949,18.63315 C54.4446401,19.4809539 57.6710088,24.0810884 56.8221513,28.8890944 C56.0649279,33.1791951 52.3150379,36.2071677 48.0963229,36.2071677" id="Fill-58"></path>
                    </g>
                    <g id="Question-Mark" transform="translate(728.000000, 106.000000)" fill="#FEFEFE">
                        <path d="M10.1114388,2.31432438 C12.9019366,2.31432438 15.3490574,3.89579896 16.3273941,6.58604221 C17.140117,8.8215874 16.6336839,10.9503718 14.5197092,14.1763484 C12.3411514,17.4827172 11.9741153,19.3066545 12.9486154,21.9833919 L13.6814088,24.0009135 L14.6731738,23.6356115 L13.9550874,21.6598938 C13.0554012,19.1831721 13.3815135,17.6634387 15.4731079,14.5898857 C17.8147218,11.1375248 18.3217944,8.85374426 17.3453759,6.16607356 C16.6311261,4.2019323 15.1917562,2.68348518 13.2926319,1.89178319 C11.3858344,1.09686551 9.15740063,1.0949361 7.01720904,1.88149299 C2.76687934,3.44560286 0.596634263,7.70059912 1.85696221,11.9993287 L1.85696221,11.9999718 L2.82826517,11.6423875 C1.81731719,7.73211284 3.63779088,4.18585387 7.35738888,2.81790087 C8.28648908,2.47703811 9.21686816,2.31432438 10.1114388,2.31432438 L10.1114388,2.31432438 Z M12.9198408,25.6499175 L11.7471156,22.4258703 C10.6306607,19.3568192 11.061001,17.0961917 13.4524908,13.4676111 C15.3106912,10.6320188 15.7800371,8.82608936 15.1258943,7.02787752 C14.0855323,4.1639872 10.9382293,2.87385382 7.79668127,4.02635583 C4.72930778,5.15377548 3.22983085,8.08455207 4.06621286,11.3182463 L4.35843502,12.4488817 L1.01610414,13.677917 L0.63052436,12.3633444 C-0.826110371,7.3931795 1.67472301,2.47768125 6.57791665,0.673038039 C9.0212008,-0.224781606 11.5795834,-0.215134547 13.7818003,0.703265491 C16.0159889,1.63452828 17.707936,3.41794796 18.5462363,5.72423825 C19.6729222,8.82415995 19.1070215,11.5137601 16.5288164,15.3153445 C14.5523204,18.2203956 14.4544867,19.2873604 15.1565872,21.2193448 L16.3126871,24.4022312 L12.9198408,25.6499175 Z" id="Fill-64"></path>
                        <path d="M16.8429712,29.6652808 C16.6920644,29.6652808 16.5385998,29.6929357 16.3902507,29.7476024 C15.7540121,29.9817044 15.4253421,30.6930142 15.6574573,31.3329358 C15.7719163,31.6467868 16.0014737,31.8995397 16.3032874,32.0423162 C16.6038222,32.1857358 16.9376077,32.2024574 17.2419792,32.0899084 C17.8993192,31.8474456 18.2273497,31.1387083 17.9869219,30.4769201 C17.8718234,30.1611397 17.6454631,29.9116024 17.3500438,29.7752573 C17.1901849,29.7025828 17.0175372,29.6652808 16.8429712,29.6652808 M16.8301825,33.4501437 C16.4599492,33.4501437 16.0993074,33.3678222 15.7578487,33.2057516 C15.1491058,32.9176261 14.6867937,32.4089045 14.4565969,31.7734848 C13.9821355,30.4685593 14.6522642,29.0169984 15.9503189,28.5391474 C16.5897547,28.3037592 17.2752298,28.3275553 17.8814149,28.6053906 C18.4907973,28.8857984 18.9550276,29.3932337 19.1884217,30.0344416 L19.1884217,30.0357279 C19.6743929,31.3740966 19.0125769,32.8070064 17.681911,33.297077 C17.4069536,33.3986927 17.1211258,33.4501437 16.8301825,33.4501437" id="Fill-66"></path>
                    </g>
                    <g id="Question-Mark" opacity="0.456215019" transform="translate(415.417362, 35.369679) rotate(-331.000000) translate(-415.417362, -35.369679) translate(403.417362, 14.869679)" fill="#FEFEFE">
                        <path d="M12.1337266,2.79080293 C15.4823239,2.79080293 18.4188689,4.69787521 19.592873,7.94199207 C20.5681404,10.6377966 19.9604207,13.2048601 17.423651,17.0950084 C14.8093817,21.0821001 14.3689383,23.281554 15.5383385,26.5093843 L16.4176906,28.9422781 L17.6078085,28.5017669 L16.7461048,26.1192837 C15.6664814,23.1326488 16.0578162,21.3000291 18.5677295,17.5936857 C21.3776662,13.4305446 21.9861533,10.676574 20.8144511,7.4355593 C19.9573514,5.06703601 18.2301074,3.23596743 15.9511583,2.28126796 C13.6630012,1.32269076 10.9888808,1.32036412 8.42065084,2.2688592 C3.3202552,4.15499168 0.715961116,9.28601658 2.22835465,14.4697787 L2.22835465,14.4705543 L3.39391821,14.0393497 C2.18078063,9.32401843 4.36534906,5.04764732 8.82886665,3.39805694 C9.9437869,2.98701655 11.0602418,2.79080293 12.1337266,2.79080293 L12.1337266,2.79080293 Z M15.503809,30.9307829 L14.0965387,27.0429613 C12.7567928,23.3420467 13.2732012,20.6159958 16.142989,16.2403546 C18.3728295,12.8209639 18.9360445,10.6432254 18.1510732,8.47479348 C16.9026387,5.02127869 13.1258752,3.4655296 9.35601752,4.85531144 C5.67516933,6.2148469 3.87579702,9.74901868 4.87945544,13.6484735 L5.23012202,15.0118867 L1.21932497,16.4939588 L0.756629232,14.9087388 C-0.991332445,8.91530469 2.00966761,2.9877921 7.89349998,0.811604694 C10.825441,-0.271060172 13.8955001,-0.259426954 16.5381603,0.848055445 C19.2191867,1.9710488 21.2495232,4.12164313 22.2554836,6.90275789 C23.6075066,10.6408988 22.9284258,13.8842401 19.8345797,18.4685037 C17.4627845,21.9716536 17.3453841,23.2582875 18.1879047,25.5880334 L19.5752245,29.42622 L15.503809,30.9307829 Z" id="Fill-64"></path>
                        <path d="M20.2115655,35.7728386 C20.0304773,35.7728386 19.8463197,35.8061872 19.6683008,35.8721088 C18.9048145,36.1544082 18.5104105,37.0121642 18.7889487,37.7838343 C18.9262995,38.1623017 19.2017685,38.467092 19.5639449,38.6392637 C19.9245867,38.8122108 20.3251293,38.8323751 20.690375,38.6966542 C21.479183,38.4042727 21.8728197,37.5496189 21.5843062,36.7515801 C21.4461881,36.3707861 21.1745558,36.0698735 20.8200526,35.9054573 C20.6282218,35.8178204 20.4210446,35.7728386 20.2115655,35.7728386 M20.196219,40.336938 C19.751939,40.336938 19.3191689,40.2376679 18.9094184,40.0422298 C18.178927,39.6947844 17.6241525,39.081326 17.3479162,38.3150846 C16.7785626,36.741498 17.582717,34.9910864 19.1403826,34.4148543 C19.9077056,34.1310037 20.7302758,34.159699 21.4576979,34.4947357 C22.1889567,34.8328746 22.7460332,35.4447819 23.026106,36.2180031 L23.026106,36.2195542 C23.6092715,37.8334694 22.8150922,39.5613901 21.2182932,40.1523576 C20.8883443,40.2748942 20.545351,40.336938 20.196219,40.336938" id="Fill-66"></path>
                    </g>
                    <g id="Question-Mark" transform="translate(278.000000, 130.000000)" fill="#FEFEFE">
                        <path d="M14.6615863,3.33534984 C18.7078081,3.33534984 22.2561332,5.61453379 23.6747215,9.49164906 C24.8531697,12.7134642 24.1188416,15.7814182 21.0535783,20.4306198 C17.8946696,25.1956806 17.3624672,27.8242962 18.7754924,31.6819471 L19.8380428,34.5895518 L21.2761019,34.0630872 L20.2348767,31.2157293 C18.9303318,27.6463363 19.4031945,25.4561323 22.4360065,21.0265999 C25.8313466,16.0511386 26.5666018,12.7598079 25.1507951,8.88640013 C24.1151329,6.05572597 22.0280465,3.8673757 19.2743162,2.72639342 C16.5094598,1.58077676 13.2782309,1.57799614 10.1749531,2.71156343 C4.01197504,4.96572177 0.865119682,11.0979223 2.6925952,17.2931502 L2.6925952,17.2940771 L4.1009845,16.778735 C2.63510992,11.1433391 5.27479678,6.03255411 10.6682139,4.06109244 C12.0154092,3.56984905 13.3644588,3.33534984 14.6615863,3.33534984 L14.6615863,3.33534984 Z M18.7337692,36.9660576 L17.0333176,32.3196366 C15.414458,27.8965924 16.0384514,24.6386292 19.5061117,19.4092043 C22.2005023,15.3226154 22.8810538,12.7199523 21.9325467,10.1284117 C20.4240218,6.00104038 15.8604325,4.1417305 11.3051878,5.80268928 C6.85749628,7.42749996 4.68325473,11.6512662 5.89600865,16.3115903 L6.31973078,17.9410353 L1.47335101,19.7122922 L0.914260322,17.8177611 C-1.19786004,10.6548763 2.42834836,3.57077592 9.53797914,0.969966586 C13.0807412,-0.323949962 16.7903959,-0.310046847 19.9836104,1.01352968 C23.2231839,2.35564369 25.6765072,4.92586617 26.8920427,8.24963748 C28.5257372,12.7171717 27.7051812,16.5933601 23.9667838,22.0721142 C21.1008646,26.2588055 20.9590057,27.79649 21.9770515,30.5808204 L23.6533963,35.1679214 L18.7337692,36.9660576 Z" id="Fill-64"></path>
                        <path d="M24.4223083,42.7529047 C24.2034934,42.7529047 23.9809697,42.7927603 23.7658635,42.8715446 C22.8433175,43.2089269 22.366746,44.2340499 22.703313,45.1562898 C22.8692786,45.6086045 23.2021369,45.9728661 23.6397668,46.1786322 C24.0755422,46.3853252 24.5595312,46.4094239 25.0008698,46.2472209 C25.9540128,45.8977893 26.4296571,44.8763738 26.0810367,43.9226201 C25.9141439,43.4675248 25.5859216,43.1078976 25.1575635,42.9114002 C24.925768,42.8066634 24.6754289,42.7529047 24.4223083,42.7529047 M24.4037646,48.2075601 C23.8669263,48.2075601 23.3439957,48.0889202 22.8488806,47.8553478 C21.9662034,47.4401081 21.2958509,46.7069505 20.9620654,45.7911987 C20.2740965,43.9105707 21.2457831,41.8186154 23.1279624,41.1299478 C24.0551442,40.7907118 25.0490832,40.8250061 25.9280517,41.2254158 C26.811656,41.629533 27.4847901,42.3608369 27.8232115,43.2849306 L27.8232115,43.2867843 C28.5278697,45.2156098 27.5682365,47.2806858 25.6387709,47.986964 C25.2400827,48.1334101 24.8256324,48.2075601 24.4037646,48.2075601" id="Fill-66"></path>
                    </g>
                    <g id="Question-Mark" transform="translate(553.000000, 110.000000)" fill="#FEFEFE">
                        <path d="M4.99776219,43.0929433 C4.63801562,43.0929433 4.28290495,43.1800695 3.95375538,43.3515413 C3.4196986,43.6314573 3.02842784,44.1032363 2.85226328,44.6816059 C2.48417207,45.8819082 3.14896149,47.1526528 4.33297277,47.5150607 C5.54201796,47.8885911 6.81318434,47.1989966 7.17849401,46.0033287 C7.54473086,44.8002458 6.87623271,43.5647224 5.65606134,43.191192 L5.65513416,43.191192 C5.44002796,43.1253839 5.2175043,43.0929433 4.99776219,43.0929433 M5.02743201,49.4753999 C4.61112734,49.4753999 4.19482267,49.4114456 3.788717,49.2881713 C1.62838318,48.626383 0.412847714,46.3166122 1.07856432,44.1393844 C1.40122362,43.0836746 2.11700804,42.2207546 3.09333058,41.7100468 C4.05574538,41.2049003 5.16001902,41.1010904 6.19753557,41.4190083 L6.19846275,41.4190083 C8.41257312,42.0965534 9.62161831,44.3479312 8.9512658,46.5455502 C8.41535466,48.2973426 6.83729107,49.4753999 5.02743201,49.4753999" id="Fill-68"></path>
                        <path d="M6.80409796,34.9674069 L9.15543125,35.6866614 L10.1790401,32.3452795 C11.2480808,28.8491096 12.8113095,27.5134837 17.7828588,25.8460368 C23.6593377,23.868087 26.3120051,21.6055868 27.5692637,17.4948992 C28.4890282,14.4862651 28.1274272,11.3515762 26.5521452,8.66734817 C24.9805719,5.98868139 22.3121424,3.963461 19.0391903,2.96336361 C12.5192472,0.969656956 6.07255145,4.08302779 3.7036017,10.364455 L3.5292915,10.8269653 L5.84075597,11.5323167 L6.00208562,11.1439563 C8.1336768,6.00073075 13.0950271,3.62237125 18.3475126,5.22401007 C20.9426947,6.01648762 23.0640869,7.61719956 24.3231999,9.73047301 C25.5943663,11.8650646 25.883647,14.3824552 25.1381928,16.817354 C24.3435979,19.4200171 22.6106949,21.5796343 16.7397792,23.6632478 C11.177615,25.6170988 9.10072752,27.4634325 7.84439605,31.5657782 L6.80409796,34.9674069 Z M10.3848744,38.0019935 L4.48799758,36.198296 L6.07162426,31.0235567 C7.50133875,26.3511833 10.0371812,24.0534618 16.1213488,21.9151628 C21.2597909,20.0910741 22.7340101,18.3420623 23.365421,16.2760594 C23.9551087,14.3463071 23.7298035,12.3581617 22.7293742,10.6795923 C21.7066926,8.9620942 19.9589547,7.65427454 17.8060383,6.99619377 C13.5150405,5.69022786 9.4604741,7.63944455 7.71459058,11.8539421 L6.90886952,13.7966706 L1.09729339,12.0235601 L1.96884437,9.71100865 C4.6919776,2.48416959 12.100161,-1.10190714 19.5815917,1.19117992 C23.3005183,2.32660096 26.3435292,4.649348 28.1506068,7.72935136 C29.9929172,10.8668209 30.4157121,14.5270476 29.3420355,18.0361938 C27.9011948,22.7493497 24.8257325,25.4326508 18.3744008,27.6033905 C13.4807348,29.243958 12.7269359,30.3552803 11.9518119,32.887501 L10.3848744,38.0019935 Z" id="Fill-70"></path>
                    </g>
                </g>
            </g>
        </g>
    </g>
</svg>