<svg xmlns="http://www.w3.org/2000/svg" width="26" height="26" viewBox="0 0 26 26"><path fill="#00000" d="M13 9.5c1.93 0 3.5 1.57 3.5 3.5s-1.57 3.5-3.5 3.5-3.5-1.57-3.5-3.5 1.57-3.5 3.5-3.5m0-1c-2.482 0-4.5 2.018-4.5 4.5s2.018 4.5 4.5 4.5 4.5-2.018 4.5-4.5-2.018-4.5-4.5-4.5z"/><circle fill="#00000" cx="13" cy="13" r="2"/><path fill="#00000" d="M13 7.5c3.524 0 7.188 3.452 9.052 5.5-1.864 2.049-5.528 5.5-9.052 5.5S5.812 15.049 3.948 13C5.812 10.952 9.476 7.5 13 7.5m0-1c-4.339 0-8.678 4.506-10.385 6.499L2.614 13C4.321 14.993 8.66 19.5 13 19.5s8.679-4.507 10.386-6.5l-.001-.001C21.678 11.006 17.339 6.5 13 6.5z"/></svg>