<?xml version="1.0" encoding="utf-8"?>
<!-- Generator: Adobe Illustrator 16.0.4, SVG Export Plug-In . SVG Version: 6.00 Build 0)  -->
<!DOCTYPE svg PUBLIC "-//W3C//DTD SVG 1.1//EN" "http://www.w3.org/Graphics/SVG/1.1/DTD/svg11.dtd">
<svg version="1.1" id="Layer_1" xmlns="http://www.w3.org/2000/svg" xmlns:xlink="http://www.w3.org/1999/xlink" x="0px" y="0px"
	 width="55px" height="40px" viewBox="0 0 80 80" enable-background="new 0 0 80 80" xml:space="preserve">
<g>
	<path fill="#CCCBCB" d="M76.963,17C77.535,17,78,17.465,78,18.038v26.924C78,45.534,77.535,46,76.963,46h-7.066l-5.749,7.614
		c-0.152,0.181-0.367,0.271-0.583,0.271c-0.215,0-0.431-0.09-0.583-0.271L57.235,46H34.038C33.464,46,33,45.534,33,44.962V18.038
		C33,17.465,33.464,17,34.038,17H76.963 M76.963,16H34.038C32.914,16,32,16.914,32,18.038v26.924C32,46.086,32.914,47,34.038,47
		h22.699l5.447,7.217l0.017,0.022l0.018,0.021c0.336,0.397,0.827,0.625,1.348,0.625c0.521,0,1.012-0.229,1.348-0.627l0.017-0.021
		l0.016-0.021L70.395,47h6.568C78.086,47,79,46.086,79,44.962V18.038C79,16.914,78.086,16,76.963,16L76.963,16z"/>
</g>
<g>
	<path fill="#4DBFB2" d="M3.037,56h7.066l5.636,7.05c0.363,0.431,1.027,0.431,1.391,0L22.766,56h23.196
		C46.535,56,47,55.535,47,54.962V28.039C47,27.465,46.535,27,45.962,27H3.037C2.465,27,2,27.465,2,28.039v26.923
		C2,55.535,2.465,56,3.037,56"/>
</g>
<g>
	<path fill="#4F5959" d="M45.962,27C46.535,27,47,27.465,47,28.039v26.923C47,55.535,46.535,56,45.962,56H22.766l-5.636,7.05
		c-0.182,0.216-0.438,0.323-0.695,0.323s-0.514-0.107-0.695-0.323L10.104,56H3.037C2.465,56,2,55.535,2,54.962V28.039
		C2,27.465,2.465,27,3.037,27H45.962 M45.962,26H3.037C1.914,26,1,26.915,1,28.039v26.923C1,56.086,1.914,57,3.037,57h6.585
		l5.335,6.674c0.38,0.452,0.913,0.699,1.477,0.699s1.096-0.247,1.459-0.679L23.247,57h22.715C47.086,57,48,56.086,48,54.962V28.039
		C48,26.915,47.086,26,45.962,26L45.962,26z"/>
</g>
<g>
	<path fill="#CCCBCB" d="M62.96,31.829c0,1.294-0.24,2.475-0.721,3.543c-0.479,1.067-1.15,1.928-2.011,2.581l2.952,2.082
		l-1.352,1.201l-3.312-2.362c-0.333,0.107-0.677,0.19-1.03,0.25c-0.354,0.061-0.714,0.09-1.081,0.09
		c-1.881,0-3.408-0.699-4.583-2.101c-1.174-1.401-1.761-3.162-1.761-5.284v-0.21c0-2.115,0.587-3.876,1.761-5.284
		c1.175-1.407,2.702-2.111,4.583-2.111c1.936,0,3.512,0.704,4.729,2.111c1.218,1.408,1.826,3.169,1.826,5.284V31.829z
		 M60.989,31.599c0-1.693-0.404-3.077-1.216-4.147c-0.81-1.071-1.933-1.606-3.367-1.606c-1.374,0-2.446,0.537-3.217,1.611
		c-0.771,1.074-1.156,2.455-1.156,4.143v0.23c0,1.708,0.386,3.098,1.156,4.168c0.771,1.071,1.843,1.605,3.217,1.605
		c1.454,0,2.582-0.533,3.383-1.601s1.2-2.458,1.2-4.173V31.599z"/>
</g>
<g>
	<path fill="#FFFFFF" d="M18.168,46.789l1.086-0.145L24.37,34h1.698l5.025,12.645l1.075,0.145V48h-4.202v-1.211l1.106-0.184
		l-0.964-2.576h-5.859l-0.996,2.576l1.105,0.184V48h-4.191V46.789z M22.861,42.443h4.643l-2.271-6.01h-0.06L22.861,42.443z"/>
</g>
</svg>
