<?xml version="1.0" encoding="UTF-8" standalone="no"?>
<svg width="23px" height="17px" viewBox="0 0 46 34" version="1.1" xmlns="http://www.w3.org/2000/svg" xmlns:xlink="http://www.w3.org/1999/xlink" xmlns:sketch="http://www.bohemiancoding.com/sketch/ns">
    <!-- Generator: Sketch 3.3.3 (12072) - http://www.bohemiancoding.com/sketch -->
    <title>Rectangle 101</title>
    <desc>Created with Sketch.</desc>
    <defs></defs>
    <g id="Page-1" stroke="none" stroke-width="1" fill="none" fill-rule="evenodd" sketch:type="MSPage">
        <path d="M6.85144629,11.6413437 L17.2956624,21.2335418 L21.5553804,7.38945808 L21.5553804,7.38945808 C20.0113215,6.91492704 18.8888889,5.4774315 18.8888889,3.77777778 C18.8888889,1.69136872 20.5802576,0 22.6666667,0 C24.7530757,0 26.4444444,1.69136872 26.4444444,3.77777778 C26.4444444,5.4774315 25.3220118,6.91492704 23.7779529,7.38945808 L28.037671,21.2335418 L38.481887,11.6413437 C38.0386563,11.0223262 37.7777778,10.2638511 37.7777778,9.44444444 C37.7777778,7.35803539 39.4691465,5.66666667 41.5555556,5.66666667 C43.6419646,5.66666667 45.3333333,7.35803539 45.3333333,9.44444444 C45.3333333,11.5308535 43.6419646,13.2222222 41.5555556,13.2222222 C41.2303347,13.2222222 40.9147122,13.1811265 40.6135978,13.1038448 L40.6135978,13.1038448 L38.1200153,26.4732815 L38.1200153,26.4732815 C38.9990778,26.6290127 39.6666667,27.3979625 39.6666667,28.3510301 L39.6666667,32.0934143 C39.6666667,33.1463925 38.8262126,34 37.7902488,34 L7.54308451,34 C6.50676755,34 5.66666667,33.1625551 5.66666667,32.0934143 L5.66666667,28.3510301 C5.66666667,27.4123691 6.334538,26.6321391 7.2134129,26.4737904 L7.2134129,26.4737904 L4.71973556,13.1038448 C4.41862115,13.1811265 4.10299867,13.2222222 3.77777778,13.2222222 C1.69136872,13.2222222 0,11.5308535 0,9.44444444 C0,7.35803539 1.69136872,5.66666667 3.77777778,5.66666667 C5.86418683,5.66666667 7.55555556,7.35803539 7.55555556,9.44444444 C7.55555556,10.2638511 7.29467704,11.0223262 6.85144629,11.6413437 L6.85144629,11.6413437 Z" id="Rectangle-101" stroke="#F6A623" fill="#FFC600" sketch:type="MSShapeGroup"></path>
    </g>
</svg>