<?xml version="1.0" encoding="UTF-8" standalone="no"?>
<svg width="170px" height="160px" viewBox="0 0 170 160" version="1.1" xmlns="http://www.w3.org/2000/svg" xmlns:xlink="http://www.w3.org/1999/xlink" xmlns:sketch="http://www.bohemiancoding.com/sketch/ns">
    <!-- Generator: Sketch 3.3.2 (12043) - http://www.bohemiancoding.com/sketch -->
    <title>Artboard 13</title>
    <desc>Created with Sketch.</desc>
    <defs>
        <filter x="-50%" y="-50%" width="200%" height="200%" filterUnits="objectBoundingBox" id="filter-1">
            <feOffset dx="0" dy="1" in="SourceAlpha" result="shadowOffsetOuter1"></feOffset>
            <feGaussianBlur stdDeviation="0.5" in="shadowOffsetOuter1" result="shadowBlurOuter1"></feGaussianBlur>
            <feColorMatrix values="0 0 0 0 0   0 0 0 0 0   0 0 0 0 0  0 0 0 0.21 0" in="shadowBlurOuter1" type="matrix" result="shadowMatrixOuter1"></feColorMatrix>
            <feMerge>
                <feMergeNode in="shadowMatrixOuter1"></feMergeNode>
                <feMergeNode in="SourceGraphic"></feMergeNode>
            </feMerge>
        </filter>
    </defs>
    <g id="Page-1" stroke="none" stroke-width="1" fill="none" fill-rule="evenodd" sketch:type="MSPage">
        <g id="Overlay" sketch:type="MSArtboardGroup" transform="translate(-1371.000000, -723.000000)"></g>
        <g id="Artboard-13" sketch:type="MSArtboardGroup">
            <ellipse id="Oval-99-Copy-2" fill="#5193DE" sketch:type="MSShapeGroup" cx="85.5536562" cy="79.5909786" rx="46.5536562" ry="46.5909786"></ellipse>
            <path d="M86.1043165,75.9017593 C91.0633023,75.9017593 95.6978967,75.4481199 100.008239,74.5408275 C104.318581,73.6335352 107.718678,72.2937165 110.208633,70.5213315 L110.208633,75.9017593 C110.208633,77.357647 109.131064,78.7080154 106.975893,79.9529049 C104.820722,81.1977944 101.891407,82.1841963 98.1878606,82.9121402 C94.4843143,83.6400841 90.4565066,84.0040505 86.1043165,84.0040505 C81.7521265,84.0040505 77.7243188,83.6400841 74.0207724,82.9121402 C70.3172261,82.1841963 67.3879114,81.1977944 65.2327404,79.9529049 C63.0775693,78.7080154 62,77.357647 62,75.9017593 L62,70.5213315 C64.4899549,72.2937165 67.8900523,73.6335352 72.2003944,74.5408275 C76.5107364,75.4481199 81.1453308,75.9017593 86.1043165,75.9017593 L86.1043165,75.9017593 Z M86.1043165,100.208633 C91.0633023,100.208633 95.6978967,99.7549937 100.008239,98.8477014 C104.318581,97.940409 107.718678,96.6005904 110.208633,94.8282053 L110.208633,100.208633 C110.208633,101.664521 109.131064,103.014889 106.975893,104.259779 C104.820722,105.504668 101.891407,106.49107 98.1878606,107.219014 C94.4843143,107.946958 90.4565066,108.310924 86.1043165,108.310924 C81.7521265,108.310924 77.7243188,107.946958 74.0207724,107.219014 C70.3172261,106.49107 67.3879114,105.504668 65.2327404,104.259779 C63.0775693,103.014889 62,101.664521 62,100.208633 L62,94.8282053 C64.4899549,96.6005904 67.8900523,97.940409 72.2003944,98.8477014 C76.5107364,99.7549937 81.1453308,100.208633 86.1043165,100.208633 L86.1043165,100.208633 Z M86.1043165,88.0551962 C91.0633023,88.0551962 95.6978967,87.6015568 100.008239,86.6942644 C104.318581,85.7869721 107.718678,84.4471535 110.208633,82.6747684 L110.208633,88.0551962 C110.208633,89.5110839 109.131064,90.8614523 106.975893,92.1063418 C104.820722,93.3512313 101.891407,94.3376332 98.1878606,95.0655771 C94.4843143,95.793521 90.4565066,96.1574875 86.1043165,96.1574875 C81.7521265,96.1574875 77.7243188,95.793521 74.0207724,95.0655771 C70.3172261,94.3376332 67.3879114,93.3512313 65.2327404,92.1063418 C63.0775693,90.8614523 62,89.5110839 62,88.0551962 L62,82.6747684 C64.4899549,84.4471535 67.8900523,85.7869721 72.2003944,86.6942644 C76.5107364,87.6015568 81.1453308,88.0551962 86.1043165,88.0551962 L86.1043165,88.0551962 Z M98.1878606,53.0700721 C101.891407,53.7834571 104.820722,54.750131 106.975893,55.9701227 C109.131064,57.1901145 110.208633,58.5134755 110.208633,59.9402455 L110.208633,63.9103682 C110.208633,65.3371382 109.131064,66.6604992 106.975893,67.8804909 C104.820722,69.1004826 101.891407,70.0671565 98.1878606,70.7805415 C94.4843143,71.4939265 90.4565066,71.8506136 86.1043165,71.8506136 C81.7521265,71.8506136 77.7243188,71.4939265 74.0207724,70.7805415 C70.3172261,70.0671565 67.3879114,69.1004826 65.2327404,67.8804909 C63.0775693,66.6604992 62,65.3371382 62,63.9103682 L62,59.9402455 C62,58.5134755 63.0775693,57.1901145 65.2327404,55.9701227 C67.3879114,54.750131 70.3172261,53.7834571 74.0207724,53.0700721 C77.7243188,52.3566871 81.7521265,52 86.1043165,52 C90.4565066,52 94.4843143,52.3566871 98.1878606,53.0700721 Z" id="database" fill="#FFFFFF" filter="url(#filter-1)" sketch:type="MSShapeGroup"></path>
        </g>
    </g>
</svg>