<?xml version="1.0" encoding="UTF-8" standalone="no"?>
<svg width="250px" height="120px" viewBox="0 0 427 233" version="1.1" xmlns="http://www.w3.org/2000/svg" xmlns:xlink="http://www.w3.org/1999/xlink" xmlns:sketch="http://www.bohemiancoding.com/sketch/ns">
    <!-- Generator: Sketch 3.3.2 (12043) - http://www.bohemiancoding.com/sketch -->
    <title>Logo w/ Lucy</title>
    <desc>Created with Sketch.</desc>
    <defs></defs>
    <g id="Page-1" stroke="none" stroke-width="1" fill="none" fill-rule="evenodd" sketch:type="MSPage">
        <g id="Artboard-1" sketch:type="MSArtboardGroup" transform="translate(-582.000000, -181.000000)">
            <g id="Logo-w/-Lucy" sketch:type="MSLayerGroup" transform="translate(582.000000, 179.900000)">
                <g id="BUILD-Copy" transform="translate(0.000000, 131.000000)" sketch:type="MSShapeGroup">
                    <path d="M80.4558078,45.8860626 C83.0134234,41.3305461 84.3595368,36.2174889 84.3595368,31.0183074 C84.3595368,13.9158562 70.1093014,0 52.5912596,0 C52.0853066,0 51.5793536,0.0271971131 51.0037741,0.0997227479 L12.9412561,0.0997227479 C5.80221311,0.0997227479 0,5.77032082 0,12.7373146 L0,90.3624081 C0,97.3294019 5.80221311,103 12.9412561,103 L57.1355529,103 L58.2727867,102.950139 C76.6541978,102.356335 91.0576116,87.8240109 91.0576116,69.8784491 C91.0576116,60.7991462 87.2049421,52.1232672 80.4558078,45.8860626 L80.4558078,45.8860626 Z M64.5,68.6666667 C64.5,73.4048651 60.9473181,77.25 56.5853379,77.25 L25.8,77.25 L25.8,60.0833333 L56.5853379,60.0833333 C60.9473181,60.0833333 64.5,63.9334297 64.5,68.6666667 L64.5,68.6666667 Z M25.8,38.625 L25.8,25.7909055 L53.9922233,25.7909055 L54.9672411,25.75 C57.9657883,26.2408658 60.2,28.9661934 60.2,32.1517077 C60.2,35.7207109 57.4170346,38.625 53.9922233,38.625 L25.8,38.625 L25.8,38.625 Z" id="Fill-5" fill="#FFFFFF"></path>
                    <path d="M377.937987,0 L343.709195,0 C336.750257,0 331.089899,5.67609356 331.089899,12.6498392 L331.089899,90.3501608 C331.089899,97.3239064 336.750257,103 343.709195,103 L377.924413,103 L378.281862,102.981851 C405.656097,102.623409 426.293103,80.48619 426.293103,51.5022686 C426.293103,22.5319589 405.665147,0.39474032 378.381405,0.0181489802 L377.937987,0 Z M399.889899,51.50223 C399.889899,66.4210401 390.587527,77.25 377.769029,77.25 L356.889899,77.25 L356.889899,25.75 L377.769029,25.75 C390.587527,25.75 399.889899,36.5789599 399.889899,51.50223 L399.889899,51.50223 Z" id="Fill-6" fill="#FFFFFF"></path>
                    <path d="M270.9,77.2666177 L270.9,12.6498392 C270.649727,5.67609356 265.585652,0 258.307231,0 C251.028811,0 245.1,5.67609356 245.1,12.6498392 L245.1,90.3501608 C245.1,97.3239064 251.028811,103 258.307231,103 L306.305975,103 C313.589131,103 319.513206,97.3239064 319.513206,90.3501608 C319.513206,83.3764151 313.589131,77.2666177 306.305975,77.2666177 L270.9,77.2666177 Z" id="Fill-7" fill="#FFFFFF"></path>
                    <path d="M232.2,54.1235376 C230.640348,59.4527187 225.447907,63.3840077 219.300479,63.3840077 C213.153051,63.3840077 207.96061,59.4527187 206.400958,54.1235376 L206.400958,90.8396954 C206.410556,97.5441491 212.188467,102.990952 219.300479,103 C226.412492,102.990952 232.185603,97.5441491 232.2,90.8396954 L232.2,54.1235376" id="Fill-8" fill="#EE9E37"></path>
                    <path d="M219.300479,0.245249187 C212.188467,0.259067675 206.410556,5.80028175 206.400958,12.6266153 L206.400958,47.1452007 C207.96061,41.7145345 213.153051,37.7117789 219.300479,37.7117789 C225.447907,37.7117789 230.640348,41.7145345 232.2,47.1452007 L232.2,12.6266153 C232.185603,5.80028175 226.412492,0.259067675 219.300479,0.245249187" id="Fill-10" fill="#6AB545"></path>
                    <path d="M219.300479,37.7117789 C213.153051,37.7117789 207.96061,41.7145345 206.400958,47.1452007 L206.400958,54.1235376 C207.96061,59.5495976 213.153051,63.5523532 219.300479,63.5523532 C225.447907,63.5523532 230.640348,59.5495976 232.2,54.1235376 L232.2,47.1452007 C230.640348,41.7145345 225.447907,37.7117789 219.300479,37.7117789" id="Fill-12" fill="#727D3D"></path>
                    <path d="M116.102399,0 C108.991445,0.0132052919 103.214395,5.30852734 103.2,11.8319415 L103.2,57.231735 C104.764218,52.0420553 109.955886,48.2213242 116.102399,48.2213242 C122.248912,48.2213242 127.44058,52.0420553 129,57.231735 L129,11.8319415 C128.985605,5.30852734 123.213353,0.0132052919 116.102399,0" id="Fill-14" fill="#D82557"></path>
                    <path d="M180.6,0 C173.487723,0.0132053287 167.709598,5.30854212 167.7,11.8319745 L167.7,57.2362962 C169.25971,52.046602 174.452344,48.2214585 180.6,48.2214585 C186.747656,48.2214585 191.94029,52.0422002 193.5,57.2318944 L193.5,11.8319745 C193.490402,5.30854212 187.712277,0.0132053287 180.6,0" id="Fill-16" fill="#2C78B0"></path>
                    <path d="M168.779927,62.992482 C168.136175,66.3427963 166.186526,69.5482573 163.174687,72.211687 C159.09146,75.8143261 153.679346,77.8749797 148.290223,77.8749797 C138.330461,77.8656343 129.446685,71.2444415 127.915475,63.0111728 C126.784311,69.0249167 121.569921,73.585456 115.325527,73.585456 C109.715689,73.585456 104.933532,69.9033812 103.2,64.7914653 C104.294378,74.6321372 109.163902,83.6083626 116.401512,90.3884267 C124.65993,98.1357363 135.99916,103 148.290223,103 C160.613474,103 171.980293,98.1310636 180.261702,90.3884267 C187.517705,83.6083626 192.396425,74.6321372 193.5,64.7914653 C191.766468,69.9033812 186.984311,73.585456 181.374473,73.585456 C175.125481,73.585456 169.906493,69.0155713 168.779927,62.992482" id="Fill-18" fill="#814C8D"></path>
                    <path d="M115.983527,47.8950374 C109.893643,47.8950374 104.749807,51.8541256 103.2,57.231735 L103.2,60.6115557 C103.2,62.00271 103.285572,63.3847419 103.447208,64.7485292 C105.239469,69.7384399 110.183637,73.3326352 115.983527,73.3326352 C122.439469,73.3326352 127.830514,68.8809416 129,63.0107267 C128.847872,62.2216457 128.767054,61.4234425 128.7623,60.6115557 L128.7623,57.231735 C127.217247,51.8541256 122.073411,47.8950374 115.983527,47.8950374" id="Fill-20" fill="#802D56"></path>
                    <path d="M180.500904,47.8950374 C174.306022,47.8950374 169.073498,51.8586868 167.501807,57.2362962 L167.501807,60.6115557 C167.501807,61.409759 167.41476,62.2034011 167.255172,62.992482 C168.439986,68.8718192 173.928816,73.3326352 180.500904,73.3326352 C186.400791,73.3326352 191.430203,69.7384399 193.253365,64.7485292 C193.417788,63.3847419 193.5,62.0072711 193.5,60.6115557 L193.5,57.231735 C191.928309,51.8541256 186.695785,47.8950374 180.500904,47.8950374" id="Fill-22" fill="#373B82"></path>
                </g>
                <g id="build-mascot" transform="translate(134.000000, 0.000000)" fill="#FFFFFF" sketch:type="MSShapeGroup">
                    <g id="Layer_1_1_">
                        <g id="Group">
                            <path d="M157.458286,35.8875 C157.458286,24.2685 147.964743,14.805 136.308857,14.805 C132.250514,14.805 128.372743,15.948 124.978,18.099 L124.9148,18.0315 L123.416057,19.188 L123.217429,19.35 C112.265771,8.55 97.2332,1.854 80.6161143,1.8405 L80.6161143,1.8405 L80.5709714,1.8405 C63.9222857,1.8405 48.8671429,8.55 37.9064571,19.377 L37.7078286,19.2195 L36.2045714,18.063 L36.1413714,18.126 C32.7421143,15.9525 28.8508,14.8005 24.7698857,14.8005 C13.114,14.8005 3.62497143,24.264 3.62497143,35.883 C3.62497143,45.1035 9.51611429,53.082 18.17,55.8945 L18.1609714,55.9845 L20.0163429,56.412 L20.2781714,56.4705 C20.0885714,58.392 19.9621714,60.318 19.9621714,62.2935 C19.9621714,95.6745 47.1020571,122.733 80.5890286,122.733 C114.076,122.733 141.229429,95.6745 141.229429,62.2935 C141.229429,60.318 141.089486,58.383 140.895371,56.4525 L141.170743,56.394 C141.179771,56.394 141.179771,56.3805 141.179771,56.3805 L143.012571,55.9575 L143.003543,55.863 C151.594229,53.037 157.458286,45.072 157.458286,35.8875 L157.458286,35.8875 Z M23.9934286,46.7685 C23.3253143,46.7685 22.6662286,46.6965 22.0252,46.584 C16.9330857,45.6615 13.0733714,41.2245 13.0733714,35.8785 C13.0733714,29.862 17.9623429,24.9885 23.9934286,24.9885 C26.6568571,24.9885 29.0990857,25.947 30.9996,27.5265 C33.3876571,29.511 34.918,32.5125 34.918,35.8695 C34.918,41.8905 30.0290286,46.7685 23.9934286,46.7685 L23.9934286,46.7685 Z M80.7018857,109.917 L80.6206286,109.917 C55.9906857,109.881 36.0420571,93.582 36.0420571,73.4715 C36.0420571,65.223 39.4006857,57.6045 45.0706286,51.4935 C44.6237143,50.778 44.2354857,50.0265 43.8833714,49.2525 C43.8472571,49.1805 43.8111429,49.1085 43.7840571,49.023 C43.0256571,47.34 42.4478286,45.5535 42.1363429,43.677 C41.9332,42.4845 41.8203429,41.2695 41.8203429,40.023 C41.8203429,37.152 42.3891429,34.416 43.4048571,31.9005 C43.7976,30.9285 44.2535429,29.9925 44.7817143,29.097 C44.7817143,29.097 44.7817143,29.097 44.7817143,29.0925 C44.9216571,28.8585 45.0661143,28.6245 45.2196,28.3995 C45.3414857,28.2105 45.4588571,28.008 45.5897714,27.8145 C45.7432571,27.594 45.8967429,27.3825 46.0592571,27.162 C46.1901714,26.973 46.3346286,26.784 46.4745714,26.5995 C46.6416,26.388 46.8131429,26.181 46.9846857,25.9785 C47.1336571,25.794 47.2871429,25.6185 47.4496571,25.4475 C47.6302286,25.245 47.8062857,25.056 47.9868571,24.867 C48.1538857,24.7005 48.3254286,24.5295 48.506,24.3585 C48.6910857,24.183 48.8761714,24.003 49.0657714,23.832 C49.2553714,23.661 49.4404571,23.499 49.6390857,23.3415 C49.8286857,23.1795 50.0137714,23.022 50.2078857,22.8735 C50.4290857,22.7025 50.6548,22.5405 50.8714857,22.374 C51.0520571,22.248 51.2281143,22.1085 51.4132,21.9825 C51.8104571,21.7125 52.2257714,21.4425 52.6456,21.1995 C52.7855429,21.1095 52.9345143,21.0375 53.0834857,20.9565 C53.3814286,20.79 53.6838857,20.6235 53.9863429,20.475 C54.1759429,20.3805 54.3610286,20.2995 54.5506286,20.2095 C54.8305143,20.088 55.1058857,19.9485 55.3812571,19.8405 C55.5844,19.7505 55.7875429,19.683 55.9952,19.5975 C56.2750857,19.503 56.5549714,19.395 56.8438857,19.305 C57.0515429,19.2285 57.2637143,19.17 57.4713714,19.107 C57.7648,19.017 58.0582286,18.936 58.3516571,18.8595 C58.5638286,18.8055 58.776,18.7605 58.9881714,18.7155 C59.2996571,18.639 59.6156571,18.585 59.9271429,18.531 C60.1302857,18.4905 60.3379429,18.45 60.5456,18.4275 C60.8886857,18.3735 61.2408,18.3375 61.5974286,18.306 C61.7734857,18.288 61.9495429,18.261 62.1256,18.252 C62.6582857,18.216 63.1954857,18.189 63.7417143,18.189 C70.5492571,18.189 76.6164571,21.294 80.6341714,26.1585 C80.7289714,26.271 80.8418286,26.379 80.9276,26.4915 C84.9408,21.438 91.1524571,18.1845 98.1270286,18.1845 C98.6461714,18.1845 99.1653143,18.2115 99.6754286,18.2385 C99.8424571,18.2565 100.014,18.2745 100.181029,18.2925 C100.515086,18.333 100.858171,18.36 101.192229,18.4005 C101.395371,18.432 101.589486,18.468 101.792629,18.495 C102.090571,18.549 102.384,18.5895 102.681943,18.6525 C102.885086,18.711 103.097257,18.7515 103.309429,18.801 C103.5848,18.873 103.855657,18.9405 104.122,19.017 C104.3432,19.08 104.559886,19.1385 104.772057,19.206 C105.029371,19.2915 105.268629,19.3725 105.530457,19.4715 C105.742629,19.5525 105.963829,19.62 106.176,19.7145 C106.415257,19.809 106.65,19.908 106.880229,20.007 C107.101429,20.1015 107.322629,20.1915 107.5348,20.2905 C107.760514,20.3895 107.963657,20.5065 108.175829,20.61 C108.397029,20.727 108.627257,20.8395 108.839429,20.961 C108.943257,21.024 109.042571,21.078 109.137371,21.1455 C109.710686,21.474 110.265943,21.834 110.803143,22.212 C110.911486,22.302 111.0424,22.374 111.146229,22.464 C111.403543,22.653 111.6428,22.851 111.886571,23.049 C112.003943,23.1435 112.143886,23.247 112.265771,23.337 C112.496,23.5395 112.735257,23.76 112.956457,23.976 C113.069314,24.0705 113.200229,24.183 113.299543,24.2865 C113.529771,24.5025 113.750971,24.732 113.967657,24.9615 C114.066971,25.0605 114.1708,25.1775 114.270114,25.2855 C114.491314,25.5285 114.708,25.7625 114.920171,26.0145 C115.010457,26.1135 115.0872,26.226 115.177486,26.325 C115.389657,26.5995 115.601829,26.8605 115.804971,27.1395 C115.872686,27.225 115.926857,27.3105 115.990057,27.405 C116.206743,27.702 116.418914,28.008 116.613029,28.3185 L116.613029,28.3185 C117.118629,29.115 117.592629,29.9295 117.989886,30.798 C119.303543,33.6015 120.061943,36.711 120.061943,40.0095 C120.061943,41.661 119.867829,43.2675 119.524743,44.802 C119.145543,46.4715 118.5632,48.0645 117.831886,49.572 C117.795771,49.6395 117.768686,49.698 117.737086,49.7565 C117.394,50.4495 117.023829,51.129 116.608514,51.768 C122.120457,57.825 125.375257,65.331 125.375257,73.4535 C125.3572,93.6 105.367943,109.917 80.7018857,109.917 L80.7018857,109.917 Z M139.1348,46.5885 C138.507314,46.6965 137.8708,46.7685 137.202686,46.7685 C131.1716,46.7685 126.278114,41.8905 126.278114,35.8785 C126.278114,32.5305 127.794914,29.5425 130.173943,27.5445 C132.078971,25.9515 134.5212,24.9885 137.202686,24.9885 C143.233771,24.9885 148.127257,29.862 148.127257,35.8785 C148.127257,41.2335 144.249486,45.6795 139.1348,46.5885 L139.1348,46.5885 Z" id="Shape"></path>
                            <path d="M63.9538857,48.5685 C68.6803429,48.5235 72.3459429,44.793 72.3278857,40.0545 C72.2962857,35.307 68.6126286,31.6665 63.8410286,31.6845 C59.1145714,31.7025 55.4534857,35.4105 55.4715429,40.1715 C55.4850857,44.8605 59.2680571,48.609 63.9538857,48.5685 L63.9538857,48.5685 Z" id="Shape"></path>
                            <g transform="translate(67.714286, 58.500000)" id="Shape">
                                <path d="M7.47114286,3.3795 C5.73314286,3.3885 4.36531429,4.7655 4.37434286,6.507 C4.37885714,8.2215 5.77377143,9.612 7.48468571,9.612 L7.51177143,9.612 C9.25428571,9.594 10.6130857,8.2125 10.6040571,6.4665 C10.5905143,4.743 9.21817143,3.3795 7.47114286,3.3795 L7.47114286,3.3795 Z M7.48468571,8.9145 L7.48468571,8.9145 L7.48468571,8.9235 L7.48468571,8.9145 L7.48468571,8.9145 Z"></path>
                                <path d="M18.2286857,3.3795 C16.4816571,3.3885 15.1228571,4.7655 15.1228571,6.507 C15.1273714,8.2215 16.5313143,9.612 18.2377143,9.612 L18.2648,9.612 C20.0028,9.594 21.3616,8.2125 21.3616,6.4665 C21.3480571,4.743 19.9757143,3.3795 18.2286857,3.3795 L18.2286857,3.3795 Z M18.2467429,8.9145 L18.2467429,8.9145 L18.2467429,8.9235 L18.2467429,8.9145 L18.2467429,8.9145 Z"></path>
                            </g>
                            <path d="M103.796971,74.88 C103.435829,74.988 103.0476,75.0645 102.1312,76.347 C99.1608,80.505 94.4975429,83.502 86.7194286,86.355 C81.7401714,88.182 75.3976,89.379 72.6122857,89.289 C69.8269714,89.19 69.3394286,89.9595 69.3394286,90.882 C69.3394286,91.89 71.1677143,92.5245 72.0570286,92.8665 C72.9418286,93.1995 79.7854857,94.7655 84.1417714,94.7655 C97.9690286,94.7655 107.0924,89.37 107.489657,82.278 C107.620571,79.776 107.011143,76.932 105.169314,75.249 C104.988743,75.0825 104.4064,74.6865 103.796971,74.88 L103.796971,74.88 Z" id="Shape"></path>
                            <path d="M108.4196,38.2365 C108.320286,34.5825 104.072343,31.653 98.8628571,31.653 C93.6669143,31.653 89.4370286,34.56 89.3106286,38.187 L89.3106286,38.3805 C89.3738286,38.781 89.7078857,39.0735 90.1232,39.0735 C90.3534286,39.0735 90.5565714,38.9835 90.7055429,38.835 L90.7326286,38.808 C92.4164571,36.8955 95.432,35.6175 98.8718857,35.6175 C102.316286,35.6175 105.3228,36.9 107.006629,38.808 L107.033714,38.835 C107.182686,38.9835 107.385829,39.0735 107.616057,39.0735 C108.022343,39.0735 108.365429,38.7765 108.428629,38.3805 L108.428629,38.2365 L108.4196,38.2365 Z" id="Shape"></path>
                        </g>
                    </g>
                </g>
            </g>
        </g>
    </g>
</svg>