<?xml version="1.0" encoding="utf-8"?>
<!-- Generator: Adobe Illustrator 16.0.4, SVG Export Plug-In . SVG Version: 6.00 Build 0)  -->
<!DOCTYPE svg PUBLIC "-//W3C//DTD SVG 1.1//EN" "http://www.w3.org/Graphics/SVG/1.1/DTD/svg11.dtd">
<svg version="1.1" id="Layer_1" xmlns="http://www.w3.org/2000/svg" xmlns:xlink="http://www.w3.org/1999/xlink" x="0px" y="0px"
	 width="25px" height="25px" viewBox="0 0 18 18" enable-background="new 0 0 18 18" xml:space="preserve">
<g>
	<path fill="#1E4362" d="M4.5,7h-1c0,1.933,1.567,3.5,3.5,3.5v-1C5.621,9.5,4.5,8.379,4.5,7z"/>
	<path fill="#1E4362" d="M16.854,16.146l-5.274-5.274C12.464,9.827,13,8.477,13,7c0-3.314-2.688-6-6-6S1,3.686,1,7s2.688,6,6,6
		c1.477,0,2.826-0.536,3.872-1.421l5.274,5.274C16.244,16.951,16.372,17,16.5,17s0.256-0.049,0.354-0.146
		C17.049,16.658,17.049,16.342,16.854,16.146z M2,7c0-2.757,2.243-5,5-5s5,2.243,5,5s-2.243,5-5,5S2,9.757,2,7z"/>
</g>
</svg>
