<?xml version="1.0" encoding="UTF-8" standalone="no"?>
<svg width="136px" height="146px" viewBox="0 0 136 146" version="1.1" xmlns="http://www.w3.org/2000/svg" xmlns:xlink="http://www.w3.org/1999/xlink" xmlns:sketch="http://www.bohemiancoding.com/sketch/ns">
    <!-- Generator: Sketch 3.3.3 (12072) - http://www.bohemiancoding.com/sketch -->
    <title>Sad File Illustration</title>
    <desc>Created with Sketch.</desc>
    <defs></defs>
    <g id="UI-toolkit" stroke="none" stroke-width="1" fill="none" fill-rule="evenodd" sketch:type="MSPage">
        <g id="Illustration" sketch:type="MSArtboardGroup" transform="translate(-1654.000000, -1047.000000)">
            <g id="No-Search-Results" sketch:type="MSLayerGroup" transform="translate(1648.000000, 966.000000)">
                <g id="Sad-File-Illustration" transform="translate(0.000000, 81.000000)">
                    <g id="Group-Copy" transform="translate(109.000000, 88.000000)"></g>
                    <g id="Group" transform="translate(6.000000, 0.000000)" sketch:type="MSShapeGroup">
                        <path d="M122.679,140.723 C122.679,143.226 100.243,145.255 72.567,145.255 C44.891,145.255 22.455,143.226 22.455,140.723 C22.455,138.22 44.891,136.191 72.567,136.191 C100.243,136.191 122.679,138.22 122.679,140.723" id="Fill-2" opacity="0.3" fill="#4CBBC3"></path>
                        <path d="M122,111 C122.384584,110.931691 122.451979,110.636462 122.406782,110.347562 C122.396666,110.282904 122.376778,110.154897 122.347936,109.967897 C122.299793,109.655749 122.243925,109.290691 122.180977,108.875954 C122.001044,107.690458 121.800514,106.34499 121.584538,104.865403 C120.967419,100.63771 120.350291,96.1834672 119.774383,91.7097058 C119.388518,88.7122322 119.034263,85.8052676 118.718435,83.0231288 C117.780258,74.7587042 117.224313,67.9937037 117.154375,63.2691043 C117.014487,53.831878 117.678034,40.8397329 118.646216,28.103525 C118.808421,25.9689973 118.072077,23.867477 116.612875,22.3025358 L97.3260321,1.60970469 C96.5972033,0.827896191 95.5708505,0.390866053 94.5021701,0.406624075 L68.2831094,0.79462497 C67.870031,0.800737882 67.4924916,1.02956547 67.2959523,1.39294336 L67.0000011,3.0000001 L58.392724,0.980303692 C58.2957924,0.955803656 22.9910932,1.46562521 22.9910932,1.46562521 C18.4718452,1.53248417 16.244182,3.1908456 15.8631984,6.45465148 C15.8554149,6.52286226 15.8412553,6.64840132 15.8206762,6.83302034 C15.786443,7.14013167 15.7467514,7.50067438 15.7020562,7.91205222 C15.5744295,9.0867366 15.4322483,10.433588 15.2791512,11.9318402 C14.8418116,16.2117716 14.4044987,20.8479023 13.9963221,25.6742133 C13.7438173,28.659849 13.5102436,31.6297761 13.2994383,34.56215 C13.2499577,35.2504414 14.3111795,36.0414717 14.9999999,36.0000003 L15.9999999,36.0000003 L13.2558509,38.6946077 C12.6998268,39.3201039 12.9836372,40.3114806 13.7864313,40.5479756 L14.9999999,41.0000003 C14.9999999,41.0000003 14.7041844,41.336358 14.3094482,41.944436 C13.666047,42.9355741 13.1548029,43.9118894 12.8246792,44.8532622 C12.6002051,45.4933672 12.4632798,46.1081777 12.4275914,46.6969328 C12.0886016,52.2699242 12.0412528,57.387386 12.1516257,64.8239402 C12.1727782,66.2545273 12.2122131,67.7128654 12.2693132,69.1972621 C12.5986565,77.758999 13.4962336,86.9079547 14.7863672,96.1684617 C15.3662582,100.330887 15.9875793,104.239381 16.6090359,107.781103 C16.8266794,109.021468 17.0288582,110.127698 17.2104123,111.085674 C17.2740579,111.421502 17.330611,111.714962 17.3794264,111.964287 C17.4890211,112.513651 17.615815,112.734123 17.8012318,112.898703 L31.2257544,124.800061 C32.0994131,125.823661 33.6634499,125.873685 34.6009439,124.908206 L43.9999992,114 L57.650699,124.646852 C58.555179,125.525318 59.9998325,125.504292 60.878826,124.599328 L69.9897299,112.897396 C69.989188,112.897955 84.006699,124.256852 84.006699,124.256852 C84.9109929,125.135137 86.3566721,125.113486 87.234852,124.209301 L95.9999973,113 L110.282668,123.788792 C111.248691,124.724814 112.811699,124.627918 113.653534,123.578123 L122,111 Z" id="Path" fill="#333841"></path>
                        <path d="M98.0000011,110.999999 C97.0961062,110.120102 95.5876499,110.012182 94.7080529,110.915768 L85.597148,122.618699 C85.5971584,122.618688 71.5026538,111.192118 71.5026538,111.192118 C71.5026538,111.192118 69.2283022,110.402571 68.3502701,111.308604 L59.1592986,123.102745 L44.9999992,111.999999 C44.9999992,111.999999 42.8740517,110.793797 41.9950529,111.696768 L32.9630561,123.317794 C32.9625394,123.318326 19.5162657,110.991834 19.4534851,110.66057 C19.2738212,109.712568 19.0734999,108.616501 18.8576818,107.386539 C18.2406766,103.870186 17.623536,99.9879902 17.0475293,95.8534465 C15.7671386,86.6628723 14.876727,77.5869543 14.550626,69.1095071 C14.4942063,67.6427987 14.4552576,66.20244 14.4343752,64.7901238 C14.3247883,57.4065282 14.3716851,52.3379213 14.7063941,46.8353062 C14.7282747,46.4743391 14.8201098,46.0619891 14.9790484,45.6087635 C15.2413167,44.8608855 15.6720715,44.0382794 16.2243549,43.1875053 C16.5764743,42.6450771 16.9555309,42.1252372 17.3342981,41.6484845 C17.559693,41.3647808 17.7321796,41.1615587 17.8247484,41.0580844 C18.3837907,40.4331808 18.1008656,39.4389621 17.2965687,39.2020244 L16,38.9999993 L19.0000001,34.9999993 C19.6761684,34.2393476 20.0159005,32.9388357 19.0000001,32.9999993 L16,33.9999993 L16,32.9999993 C16.2100934,30.0775298 15.748279,28.9763683 16,25.9999993 C16.4069903,21.1877155 17.1142713,16.431262 17.5503247,12.1639173 C17.7029152,10.6706229 17.8445868,9.32859902 17.9716997,8.1586437 C18.0161633,7.74939765 18.055623,7.39096189 18.0896237,7.08593571 C18.1099848,6.90327222 18.1240285,6.77876076 18.1311465,6.71635959 C18.3670763,4.69523382 19.5703313,3.7994827 23.0248858,3.7483751 L58.1299068,3.22837479 L66.723276,5.44069631 C67.2297604,5.56871325 67.7585154,5.3365635 68.0070477,4.87705664 L69.0000011,3.00000001 L94.5358906,2.68937503 C94.9598417,2.68312374 95.3672681,2.85660948 95.6560429,3.16637578 L115.000001,23.9999993 C116.024169,25.0983828 116.483666,26.4318503 116.369782,27.9305054 C115.396577,40.7327776 114.801757,53.4732933 115,62.9999993 C115.014274,67.8168143 115.504043,74.9476485 116.450005,83.280641 C116.767188,86.0747199 117.12281,88.9928983 117.510068,92.0011914 C118.087749,96.488729 118.706609,100.955471 119.325478,105.195159 C119.542098,106.679155 119.819437,107.810344 120.000001,108.999999 C120.063227,109.416566 119.951583,109.686071 120.000001,109.999999 C120.029097,110.188646 111.823504,122.215641 111.823504,122.215641 C111.872706,122.149578 98.0000011,110.999999 98.0000011,110.999999 Z" id="Shape" fill="#FFFFFF"></path>
                        <path d="M95.667,1.965 L94.65,20.227 C94.684,22.496 96.551,24.308 98.82,24.275 C98.82,24.275 113.903,22.737 117.407,26.647 L95.667,1.965 Z" id="Fill-9" fill="#E4E5E3"></path>
                        <path d="M94.527266,1.90152888 L93.510266,20.1635289 C93.5520698,23.1431944 95.9373555,25.4585455 98.8366001,25.4163793 C99.0208634,25.4019373 99.1882729,25.3862368 99.4290825,25.3658355 C99.8336754,25.3315587 100.293888,25.2972174 100.80075,25.2651321 C103.332111,25.1048919 105.962075,25.0606839 108.40782,25.2027392 C112.529755,25.4421521 115.47382,26.2002342 116.55691,27.4088197 C116.977651,27.8783115 117.699328,27.9178314 118.16882,27.49709 C118.638311,27.0763485 118.677831,26.354672 118.25709,25.8851803 C116.627125,24.0663555 113.251884,23.1972476 108.5402,22.9235805 C105.989456,22.7754265 103.272478,22.8210972 100.65652,22.9866925 C100.132989,23.0198331 99.6566654,23.0553766 99.2363588,23.0909846 C98.9822288,23.1125143 98.8018975,23.1294268 98.7042027,23.1393886 C97.1643795,23.1574584 95.8159262,21.8485407 95.7913719,20.209897 L96.806734,2.02847112 C96.8417882,1.39901339 96.3599288,0.860320096 95.7304711,0.825265966 C95.1010134,0.790211837 94.5623201,1.27207116 94.527266,1.90152888 L94.527266,1.90152888 Z" id="Shape" fill="#333841"></path>
                        <rect id="Rectangle-61" fill="#333841" x="53" y="80" width="21" height="2" rx="1"></rect>
                        <path d="M80.0449272,62.8045385 C78.5854003,62.8267297 77.3808657,61.3673351 77.3565807,59.5424392 C77.3310815,57.7175432 78.4943317,56.2189878 79.9538586,56.1954913 C80.3949311,56.1883965 80.8126442,56.3166226 81.1815586,56.5493358 C82.0344124,57.0873205 82.6264672,58.1837243 82.6434193,59.4575906 C82.6689185,61.2824866 81.5056683,62.781042 80.0449272,62.8045385 Z M49.2090966,62.8045385 C47.7495697,62.8267297 46.5450351,61.3673351 46.5207501,59.5424392 C46.4952509,57.7175432 47.6585011,56.2189878 49.1180279,56.1954913 C49.5591005,56.1883965 49.9768136,56.3166226 50.345728,56.5493358 C51.1985818,57.0873205 51.7906366,58.1837243 51.8075887,59.4575906 C51.8330879,61.2824866 50.6698377,62.781042 49.2090966,62.8045385 Z" id="Stroke-22" stroke="#333841" stroke-width="2.283" stroke-linecap="round" stroke-linejoin="round"></path>
                        <path d="M1.82190102,98.5290078 L0.55188288,99.7990259 C0.365825617,99.9850832 0.36298103,100.30451 0.558243176,100.499772 C0.74779475,100.689324 1.06724021,100.697882 1.25898966,100.506133 L2.5290078,99.2361146 L3.89544759,100.602554 C4.08150486,100.788612 4.40093193,100.791456 4.59619408,100.596194 C4.78574565,100.406643 4.79430383,100.087197 4.60255437,99.8954476 L3.23611458,98.5290078 L4.80724416,96.9578782 C4.99330142,96.771821 4.99614601,96.4523939 4.80088386,96.2571317 C4.61133229,96.0675802 4.29188683,96.059022 4.10013738,96.2507714 L2.5290078,97.821901 L1.05429988,96.3471931 C0.868242612,96.1611358 0.548815536,96.1582912 0.353553391,96.3535534 C0.164001817,96.543105 0.155443643,96.8625504 0.347193094,97.0542999 L1.82190102,98.5290078 Z" id="Rectangle-62" fill="#CBCCCB"></path>
                        <path d="M118.61457,11.4180988 L117.344552,12.6881169 C117.158495,12.8741742 117.15565,13.1936013 117.350913,13.3888634 C117.540464,13.578415 117.85991,13.5869732 118.051659,13.3952237 L119.321677,12.1252056 L120.688117,13.4916454 C120.874174,13.6777026 121.193601,13.6805472 121.388863,13.4852851 C121.578415,13.2957335 121.586973,12.976288 121.395224,12.7845386 L120.028784,11.4180988 L121.599914,9.84696922 C121.785971,9.66091196 121.788815,9.34148488 121.593553,9.14622274 C121.404002,8.95667116 121.084556,8.94811299 120.892807,9.13986244 L119.321677,10.710992 L117.846969,9.2362841 C117.660912,9.05022684 117.341485,9.04738225 117.146223,9.24264439 C116.956671,9.43219597 116.948113,9.75164143 117.139862,9.94339088 L118.61457,11.4180988 Z" id="Rectangle-62-Copy-2" fill="#CBCCCB"></path>
                        <path d="M123.884,114.858 C123.228,114.005 123.388,112.782 124.24,112.126 C125.092,111.47 126.316,111.63 126.972,112.482 L134.081,121.722 C134.737,122.575 134.578,123.798 133.725,124.454 C132.872,125.11 131.65,124.951 130.994,124.098 L123.884,114.858 Z" id="Fill-13" fill="#A8DBE7"></path>
                        <path d="M125.227,112.699 L132.035,121.432 C132.462,121.98 132.502,122.682 132.243,123.275 C133.022,122.647 133.167,121.524 132.55,120.733 L125.742,112 C125.114,111.194 123.942,111.044 123.125,111.665 C122.863,111.863 122.696,112.125 122.574,112.405 C122.589,112.393 122.594,112.376 122.61,112.364 C123.427,111.743 124.599,111.893 125.227,112.699" id="Fill-14" fill="#FFFFFF"></path>
                        <path d="M125.473,115.481 L123.187,112.509 L125.459,110.761 L127.746,113.733 C127.746,113.733 127.001,113.635 126.285,114.185 C125.57,114.736 125.473,115.481 125.473,115.481 L125.473,115.481 Z" id="Fill-15" fill="#FFFFFF"></path>
                        <path d="M131.446137,123.750089 L124.336137,114.510089 C123.872452,113.907156 123.985312,113.04211 124.588045,112.578034 C125.190109,112.114474 126.055966,112.227412 126.519966,112.830045 L133.628839,122.06988 C134.09285,122.673236 133.980244,123.538006 133.377211,124.001769 C132.773805,124.465818 131.910025,124.353284 131.446231,123.750211 L131.446137,123.750089 Z M130.541769,124.445789 C131.389801,125.54849 132.969969,125.754355 134.072789,124.906231 C135.175475,124.05821 135.381367,122.477046 134.533231,121.374211 L127.424161,112.13412 C126.575736,111.032202 124.993505,110.825824 123.891955,111.673966 C122.790201,112.522265 122.583923,114.103331 123.431769,115.205789 L130.541863,124.445911 L130.541769,124.445789 Z" id="Shape" fill="#333841"></path>
                        <path d="M126.596,94.221 C130.778,99.655 129.762,107.45 124.327,111.632 C118.893,115.813 111.098,114.797 106.917,109.363 C102.735,103.928 103.751,96.133 109.185,91.952 C114.62,87.771 122.415,88.787 126.596,94.221 L126.596,94.221 Z" id="Fill-18" fill="#FFFFFF"></path>
                        <path d="M126.143888,94.5689445 C130.133653,99.7531584 129.164445,107.189953 123.979096,111.179858 C118.794865,115.168682 111.358047,114.199432 107.369152,109.015108 C103.379464,103.83004 104.348385,96.3931883 109.532892,92.4041518 C114.718081,88.4153246 122.154931,89.3845403 126.143848,94.5688923 L126.143888,94.5689445 Z M108.837148,91.4998173 C103.153151,95.8731685 102.090893,104.026423 106.464858,109.710904 C110.838011,115.394644 118.991211,116.457261 124.674892,112.084152 C130.359675,107.709954 131.422254,99.5567217 127.048112,93.8730555 C122.674977,88.1893397 114.521799,87.1267677 108.837148,91.4998173 Z" id="Shape" fill="#333841"></path>
                        <path d="M112.145,110.079 C107.568,107.532 105.922,101.757 108.469,97.18 C111.016,92.603 116.791,90.958 121.368,93.504 C125.945,96.051 127.591,101.826 125.044,106.403 C122.497,110.98 116.722,112.626 112.145,110.079 L112.145,110.079 Z" id="Fill-20" fill="#FFFFFF"></path>
                        <path d="M112.298769,109.809033 C107.859455,107.338652 106.263142,101.737458 108.733417,97.2983338 C111.20357,92.8594283 116.804604,91.2634605 121.244157,93.7330042 C125.68343,96.2033621 127.279743,101.804556 124.809468,106.24368 C122.339087,110.682995 116.737893,112.279308 112.298769,109.809033 L112.298769,109.809033 Z M112.021116,110.307981 C116.73581,112.931605 122.684697,111.236201 125.308417,106.521334 C127.932041,101.806639 126.236637,95.8577528 121.521769,93.2340328 C116.806641,90.6111976 110.857959,92.3062247 108.234468,97.02068 C105.610845,101.735374 107.306249,107.684261 112.021116,110.307981 L112.021116,110.307981 Z" id="Shape" fill="#333841"></path>
                    </g>
                </g>
            </g>
        </g>
    </g>
</svg>